<svg width="1366" height="323" viewBox="0 0 1366 323" fill="none" xmlns="http://www.w3.org/2000/svg">
<path d="M1366 0V322.5H0V1.64999C15.88 12.95 32.52 24.22 45.47 38.88C71.2 68.02 82.6 121.53 117.12 146.42C148.19 168.84 196.91 159.47 234.08 177.78C268.25 194.62 294.31 241.5 332.85 254.38C368.91 266.44 413.85 243.63 453.1 251.82C490.31 259.59 524.69 299.24 564.24 303.19C602.11 306.98 642.3 274.97 681.84 274.97C721.38 274.97 761.56 306.99 799.44 303.19C838.99 299.23 873.36 259.59 910.57 251.82C949.82 243.63 994.77 266.44 1030.82 254.38C1069.36 241.5 1095.43 194.62 1129.59 177.78C1166.77 159.47 1215.49 168.84 1246.56 146.42C1281.07 121.53 1292.47 68.03 1318.2 38.88C1331.78 23.5 1349.43 11.86 1366 0Z" fill="#1E3160"/>
</svg>
