<svg xmlns="http://www.w3.org/2000/svg" width="87.467" height="51.489" viewBox="0 0 87.467 51.489"><g transform="translate(-1776.468 -1047.872)"><path d="M1845.654,1099.361a18.279,18.279,0,0,1-9.968-33.6l-1.258-2.88-13.983,19.856-.057.084a2.522,2.522,0,0,1-.226.279c-.076.083-.159.165-.241.239a2.829,2.829,0,0,1-.795.5,2.8,2.8,0,0,1-.556.177c-.083.018-.17.034-.258.045l-.059.006c-.105.01-.211.017-.316.017h-5.153a18.281,18.281,0,1,1-18.034-21.285,18.061,18.061,0,0,1,9.532,2.686l2.37-2.738-3.109-7.119h-2.567a3,3,0,0,1,0-6.009l4.741,0,.01,0h5.541a3,3,0,1,1,0,6.009H1810.1l1.83,4.2,18.959-5.043-1.85-4.238,10.719-2.588a3.052,3.052,0,0,1,.706-.084,3,3,0,0,1,.7,5.926l-3.754.908.389.887,3.386,7.757a18.282,18.282,0,1,1,4.462,36.011Z" fill="#f0595a"/><g transform="translate(1778.4 1049.804)"><g transform="translate(50.907 14.929)"><path d="M1868.289,1104.652a16.348,16.348,0,1,1,16.347-16.348A16.366,16.366,0,0,1,1868.289,1104.652Zm0-30.549a14.2,14.2,0,1,0,14.2,14.2A14.218,14.218,0,0,0,1868.289,1074.1Z" transform="translate(-1851.941 -1071.956)" fill="#fff"/></g><g transform="translate(0 14.929)"><path d="M1795.575,1104.652a16.348,16.348,0,1,1,16.348-16.348A16.366,16.366,0,0,1,1795.575,1104.652Zm0-30.549a14.2,14.2,0,1,0,14.2,14.2A14.218,14.218,0,0,0,1795.575,1074.1Z" transform="translate(-1779.228 -1071.956)" fill="#fff"/></g><g transform="translate(15.275 5.909)"><path d="M1825.307,1085.514h-23.188a1.073,1.073,0,0,1-.811-1.776l15.274-17.639a1.073,1.073,0,0,1,.535-.335l25.023-6.655a1.072,1.072,0,0,1,1.153,1.654l-17.11,24.3A1.073,1.073,0,0,1,1825.307,1085.514Zm-20.839-2.146h20.283l15.09-21.426-21.851,5.812Z" transform="translate(-1801.046 -1059.072)" fill="#fff"/></g><g transform="translate(26.037 1.749)"><path d="M1829.917,1083.732a1.074,1.074,0,0,1-.984-.644l-12.425-28.455a1.073,1.073,0,0,1,1.967-.859l12.425,28.456a1.074,1.074,0,0,1-.983,1.5Z" transform="translate(-1816.418 -1053.13)" fill="#fff"/></g><g transform="translate(53.334)"><path d="M1869.329,1082.982a1.075,1.075,0,0,1-.984-.644l-12.937-29.628,8.482-2.048a1.073,1.073,0,1,1,.5,2.086l-6,1.448,11.913,27.284a1.074,1.074,0,0,1-.982,1.5Z" transform="translate(-1855.408 -1050.632)" fill="#fff"/></g><g transform="translate(21.502 1.749)"><path d="M1821.305,1055.276h-10.292a1.073,1.073,0,1,1,0-2.146h10.292a1.073,1.073,0,1,1,0,2.146Z" transform="translate(-1809.94 -1053.13)" fill="#fff"/></g></g></g></svg>