<svg xmlns="http://www.w3.org/2000/svg" width="225.1" height="41.91" viewBox="0 0 225.1 41.91"><g transform="translate(-1037.879 -557.778)"><path d="M1074.766,583.954a10.566,10.566,0,0,1-1.372-5.214v-.006h.027v-.006a10.574,10.574,0,0,1,1.372-5.215,4.914,4.914,0,0,0,.4-.655,5.084,5.084,0,0,0-3.181-7.24c-1.127-.307-2.347-.136-3.5-.341a10.672,10.672,0,0,1-5-2.355,12.973,12.973,0,0,1-2.246-2.623,5.387,5.387,0,0,0-4.427-2.521h-.021a5.386,5.386,0,0,0-4.426,2.521,12.955,12.955,0,0,1-2.247,2.623,10.705,10.705,0,0,1-3.2,1.864,10.591,10.591,0,0,1-1.8.49c-1.15.206-2.37.035-3.5.341a5.083,5.083,0,0,0-3.181,7.24,4.963,4.963,0,0,0,.4.655,10.568,10.568,0,0,1,1.372,5.215v.006h-.027v.006a10.572,10.572,0,0,1-1.372,5.214,4.969,4.969,0,0,0-.4.655,5.084,5.084,0,0,0,3.181,7.24c1.127.306,2.347.135,3.5.341a10.573,10.573,0,0,1,1.8.49,10.722,10.722,0,0,1,3.2,1.864,12.976,12.976,0,0,1,2.247,2.623,5.386,5.386,0,0,0,4.427,2.521h.02a5.386,5.386,0,0,0,4.427-2.521,12.972,12.972,0,0,1,2.247-2.623,10.725,10.725,0,0,1,3.2-1.864,10.578,10.578,0,0,1,1.8-.49c1.15-.206,2.37-.035,3.5-.341a5.084,5.084,0,0,0,3.181-7.24A5.03,5.03,0,0,0,1074.766,583.954ZM1063.7,573.3a.839.839,0,0,1-1.407.617,6.689,6.689,0,0,0-4.677-1.8,6.612,6.612,0,0,0,0,13.219,6.718,6.718,0,0,0,4.669-1.79.838.838,0,0,1,1.415.609v2.281a.84.84,0,0,1-.294.638,9.185,9.185,0,0,1-6.052,2.063,10.415,10.415,0,0,1,0-20.822,9.185,9.185,0,0,1,6.052,2.063.839.839,0,0,1,.294.637Z" fill="#fff"/><g transform="translate(1093.502 562.661)"><path d="M1151.56,570.119a10.59,10.59,0,0,0-6.982-2.369,12.088,12.088,0,0,0,0,24.165,10.59,10.59,0,0,0,6.983-2.37l.022-.019a.367.367,0,0,0,.13-.281v-2.96a.368.368,0,0,0-.222-.337.371.371,0,0,0-.145-.03.366.366,0,0,0-.252.1l-.112.105a8.76,8.76,0,0,1-6.086,2.339,8.633,8.633,0,0,1,0-17.262,8.825,8.825,0,0,1,6.089,2.343l.111.1a.367.367,0,0,0,.249.1.371.371,0,0,0,.147-.031.367.367,0,0,0,.22-.336v-2.958a.367.367,0,0,0-.13-.28Z" transform="translate(-1132.846 -566.792)" fill="#fff"/><path d="M1185.391,579.185h-2.747a.367.367,0,0,0-.367.354l-.079,2.267a7.711,7.711,0,0,0-6.128-2.941,8.83,8.83,0,0,0,0,17.654,7.712,7.712,0,0,0,6.129-2.94l.079,2.267a.367.367,0,0,0,.367.354h2.747a.367.367,0,0,0,.367-.367V579.552A.367.367,0,0,0,1185.391,579.185Zm-3.531,8.476a5.334,5.334,0,0,1-5.376,5.407,5.376,5.376,0,1,1,0-10.751A5.3,5.3,0,0,1,1181.86,587.661Z" transform="translate(-1147.189 -571.398)" fill="#fff"/><path d="M1213.432,578.866a7.62,7.62,0,0,0-6.11,2.929l-.1-2.258a.367.367,0,0,0-.367-.351h-2.715a.367.367,0,0,0-.367.367v23.623a.367.367,0,0,0,.367.367h2.877a.367.367,0,0,0,.367-.367v-9.49a7.526,7.526,0,0,0,6.046,2.835,8.656,8.656,0,0,0,8.636-8.859,8.847,8.847,0,0,0-2.488-6.206A8.5,8.5,0,0,0,1213.432,578.866Zm5.025,8.8a5.429,5.429,0,0,1-5.439,5.407,5.376,5.376,0,1,1,0-10.751A5.4,5.4,0,0,1,1218.457,587.661Z" transform="translate(-1162.232 -571.398)" fill="#fff"/><path d="M1240.01,569.494a1.976,1.976,0,0,0-2,2,2,2,0,0,0,2,2,1.976,1.976,0,0,0,2-2A1.953,1.953,0,0,0,1240.01,569.494Z" transform="translate(-1176.416 -567.515)" fill="#fff"/><rect width="3.611" height="17.016" rx="0.627" transform="translate(61.789 7.788)" fill="#fff"/><path d="M1256.375,576.025h-2.984V571.6a.368.368,0,0,0-.367-.367h-2.845a.367.367,0,0,0-.367.367v4.42h-1.931a.367.367,0,0,0-.367.367v2.717a.367.367,0,0,0,.367.367h1.931v13.2a.367.367,0,0,0,.367.367h2.845a.368.368,0,0,0,.367-.367v-13.2h2.984a.367.367,0,0,0,.367-.367v-2.717A.367.367,0,0,0,1256.375,576.025Z" transform="translate(-1180.352 -568.237)" fill="#fff"/><path d="M1282.349,579.185H1279.6a.367.367,0,0,0-.367.354l-.079,2.267a7.712,7.712,0,0,0-6.129-2.941,8.83,8.83,0,0,0,0,17.654,7.711,7.711,0,0,0,6.129-2.94l.079,2.267a.367.367,0,0,0,.367.354h2.747a.367.367,0,0,0,.367-.367V579.552A.367.367,0,0,0,1282.349,579.185Zm-3.531,8.476a5.334,5.334,0,0,1-5.376,5.407,5.376,5.376,0,1,1,0-10.751A5.3,5.3,0,0,1,1278.818,587.661Z" transform="translate(-1187.358 -571.398)" fill="#fff"/><rect width="3.611" height="24.804" rx="0.627" transform="translate(98.333 0)" fill="#fff"/><path d="M1337.287,579.275a5.727,5.727,0,0,0,2.167-4.674c0-3.949-2.8-6.306-7.486-6.306h-6.674a.367.367,0,0,0-.367.367v22.793a.367.367,0,0,0,.367.367h7.152c5.265,0,8.285-2.45,8.285-6.721A6.751,6.751,0,0,0,1337.287,579.275Zm-.136,5.7c0,2.254-1.583,3.4-4.705,3.4h-3.907v-7.176h4.067C1335.451,581.194,1337.151,582.606,1337.151,584.973Zm-8.613-7.231v-6h3.429c1.782,0,3.907.523,3.907,3.013,0,1.28-.4,2.982-3.907,2.982Z" transform="translate(-1212.424 -567.018)" fill="#fff"/><rect width="3.611" height="17.016" rx="0.627" transform="translate(130.004 7.788)" fill="#fff"/><path d="M1356.477,569.494a1.976,1.976,0,0,0-2,2,2,2,0,0,0,2,2,1.976,1.976,0,0,0,2-2A1.953,1.953,0,0,0,1356.477,569.494Z" transform="translate(-1224.668 -567.515)" fill="#fff"/><path d="M1374.881,581.4l7.234-6.859a.367.367,0,0,0-.253-.634h-4.022a.368.368,0,0,0-.252.1l-7.491,7.083v-14.6a.367.367,0,0,0-.367-.367h-2.877a.367.367,0,0,0-.367.367v24.07a.367.367,0,0,0,.367.367h2.877a.367.367,0,0,0,.367-.367v-4.635l2.206-2.075,5.643,6.917.019.023a.368.368,0,0,0,.286.136h3.585a.367.367,0,0,0,.285-.6Z" transform="translate(-1229.642 -566.115)" fill="#fff"/><path d="M1407.874,581.576a8.2,8.2,0,0,0-6.216-2.71,8.433,8.433,0,0,0-8.508,8.732,8.554,8.554,0,0,0,8.764,8.923,7.9,7.9,0,0,0,7.789-5.323l.021-.074a.367.367,0,0,0-.3-.466l-2.549-.335a.34.34,0,0,0-.048,0,.367.367,0,0,0-.33.206l-.021.043a4.886,4.886,0,0,1-4.557,2.629c-2.821,0-4.833-1.675-5.12-4.208h13a.367.367,0,0,0,.367-.367v-.768A9.374,9.374,0,0,0,1407.874,581.576Zm-1.368,4.567H1396.8a4.955,4.955,0,0,1,9.706,0Z" transform="translate(-1240.689 -571.398)" fill="#fff"/></g></g></svg>