<svg xmlns="http://www.w3.org/2000/svg" width="94.894" height="104.973" viewBox="0 0 94.894 104.973"><path d="M113.993,156.257a26.474,26.474,0,0,1-3.437-13.061v-.016h.069v-.013a26.471,26.471,0,0,1,3.433-13.061,12.124,12.124,0,0,0,1.012-1.641,12.733,12.733,0,0,0,1.423-5.848,12.866,12.866,0,0,0-9.391-12.287c-2.82-.768-5.878-.339-8.758-.857a26.388,26.388,0,0,1-4.511-1.226,26.835,26.835,0,0,1-8.013-4.669,32.6,32.6,0,0,1-5.628-6.57c-2.59-3.73-6.405-6.313-11.087-6.313h-.049c-4.682,0-8.5,2.583-11.087,6.313a32.6,32.6,0,0,1-5.628,6.57,26.875,26.875,0,0,1-8.013,4.669,26.387,26.387,0,0,1-4.511,1.226c-2.88.517-5.937.089-8.761.857A12.739,12.739,0,0,0,24.1,130.106a26.475,26.475,0,0,1,3.437,13.061v.013h-.069v.016a26.471,26.471,0,0,1-3.433,13.061,12.125,12.125,0,0,0-1.012,1.641,12.733,12.733,0,0,0-1.423,5.848,12.866,12.866,0,0,0,9.391,12.287c2.82.768,5.878.339,8.758.853a26.767,26.767,0,0,1,12.524,5.9,32.6,32.6,0,0,1,5.628,6.57c2.59,3.73,6.405,6.313,11.087,6.313h.049c4.682,0,8.5-2.583,11.087-6.313a32.6,32.6,0,0,1,5.628-6.57,26.767,26.767,0,0,1,12.524-5.9c2.88-.514,5.937-.086,8.761-.853a12.739,12.739,0,0,0,6.956-19.776ZM86.279,129.585a2.092,2.092,0,0,1-1.255,1.921,2.042,2.042,0,0,1-.843.178,2.094,2.094,0,0,1-1.423-.557,16.765,16.765,0,0,0-11.713-4.5,16.56,16.56,0,0,0,0,33.111,16.806,16.806,0,0,0,11.694-4.484,2.1,2.1,0,0,1,3.542,1.526v5.717a2.106,2.106,0,0,1-.735,1.6,23.016,23.016,0,0,1-15.16,5.166c-14.214,0-25.354-11.456-25.354-26.076S56.17,117.1,70.385,117.1a23.016,23.016,0,0,1,15.16,5.166,2.1,2.1,0,0,1,.735,1.6Z" transform="translate(-21.6 -90.695)" fill="#ea4047"/></svg>