<svg xmlns="http://www.w3.org/2000/svg" width="1472.003" height="990.492" viewBox="0 0 1472.003 990.492">
  <path id="curve-path" d="M638.133,2559.058c3.379,39.466,16.849,82.213,1.549,117.525-16.06,37.049-63.52,52.868-92.48,85.672-25.73,29.143-37.13,82.649-71.64,107.538-31.07,22.415-79.79,13.045-116.97,31.361-34.16,16.839-60.23,63.717-98.77,76.6-36.05,12.058-81-10.758-120.25-2.564-37.21,7.77-71.58,47.415-111.13,51.368-37.88,3.8-78.06-28.213-117.6-28.213s-79.73,32.008-117.6,28.213c-39.55-3.952-73.93-43.6-111.14-51.368-39.25-8.194-84.19,14.622-120.25,2.564-38.54-12.886-64.6-59.763-98.77-76.6-37.17-18.317-85.89-8.947-116.96-31.361-34.52-24.889-45.92-78.4-71.65-107.538-28.95-32.8-76.42-48.623-92.47-85.672-14.28-32.927-3.52-72.337.74-109.531v-70.86c-4.25-37.182-15.01-76.581-.74-109.52,16.05-37.048,63.52-52.867,92.47-85.661,25.73-29.155,37.14-82.661,71.65-107.55,31.07-22.415,79.79-13.042,116.96-31.36,34.17-16.839,60.23-63.716,98.77-76.6,36.06-12.058,81,10.76,120.26,2.565,37.21-7.77,71.58-47.405,111.13-51.369,37.87-3.794,78.05,28.214,117.6,28.214s79.73-32.009,117.6-28.214c39.55,3.964,73.92,43.6,111.13,51.369,39.26,8.195,84.2-14.623,120.26-2.565,38.54,12.888,64.6,59.765,98.77,76.6,37.17,18.318,85.89,8.946,116.96,31.36,34.51,24.889,45.92,78.4,71.65,107.538,28.95,32.806,76.421,48.625,92.47,85.672,15.3,35.313,1.83,78.059-1.549,117.525Z" transform="translate(825.163 -2036.382)" fill="#042437" opacity="0.679" style="mix-blend-mode: multiply;isolation: isolate"/>
</svg>
