<svg xmlns="http://www.w3.org/2000/svg" width="216.171" height="28.627" viewBox="0 0 216.171 28.627"><g transform="translate(0)"><path d="M-376.6,694.592v0l0,0Z" transform="translate(483.887 -677.618)" fill="#1e3160"/><path d="M-443.118,692.013s5.27,1.48,10.346,2.759a10.942,10.942,0,0,0-1.105,2.96C-440.377,694.908-443.118,692.013-443.118,692.013Z" transform="translate(458.056 -678.62)" fill="#1e3160"/><path d="M-435.043,694.5a10.273,10.273,0,0,0-.811,2.171A10.273,10.273,0,0,1-435.043,694.5Z" transform="translate(460.877 -677.655)" fill="#1e3160"/><path d="M-398.344,683.309q2.443,0,4.974.189c11.158.841,13.465,8.435,13.465,8.435l-.026-.015a14.874,14.874,0,0,0-2.123-.948,35.306,35.306,0,0,0-12.3-1.973,54.315,54.315,0,0,0-10.361,1.052,16.581,16.581,0,0,0-2.784-2.571,24.827,24.827,0,0,0-4.587-2.649A61.923,61.923,0,0,1-398.344,683.309Zm-37.507,21.125a6.938,6.938,0,0,1-.147-2.18,8.022,8.022,0,0,1,.169-1.063c-.018.08-.043.161-.058.241.026-.139.065-.279.1-.418a10.275,10.275,0,0,1,.811-2.171l.054-.1a12.781,12.781,0,0,1,.639-1.108,21.454,21.454,0,0,1,5.158-5.331c1.018-.025,2.038-.04,3.057-.04a88.94,88.94,0,0,1,11.087.614c-1.91.672-3.9,1.449-5.956,2.348a28.734,28.734,0,0,0-6.749,3.85c-.265.222-.519.453-.764.689-.057.053-.112.108-.167.165-.144.144-.285.293-.418.443-.083.1-.165.193-.246.29-.126.156-.244.315-.357.476-.069.1-.14.2-.2.3-.112.178-.21.359-.3.544-.046.09-.1.178-.139.267a5.394,5.394,0,0,0-.307.852c-.017.069-.028.128-.044.2-.067.275-.125.537-.168.787-.583,3.3.823,4.27,1.667,4.823a3.129,3.129,0,0,1,.448.325s-.439-.089-1.094-.275C-431.632,708.422-435.239,707.064-435.851,704.434Z" transform="translate(460.81 -682)" fill="#1e3160"/><path d="M-417.02,702.911a34.393,34.393,0,0,1-8.32,1.12,14.8,14.8,0,0,1-6.074-.982.1.1,0,0,1,.025,0,13,13,0,0,0,2.538.226,27.937,27.937,0,0,0,11.8-2.984c.435.035.865.072,1.305.1,1.474.1,3,.16,4.533.194A22.173,22.173,0,0,1-417.02,702.911Z" transform="translate(462.601 -675.404)" fill="#1e3160"/><path d="M-385.828,699.905c-4.9,2.786-10.984,3.848-20.035,4.066q-1.37.033-2.682.033h-.079q-.66,0-1.308-.007-2.982-.04-5.693-.226c-.516-.035-1.011-.082-1.513-.125a75.87,75.87,0,0,1-14.448-2.557c.018-.071.029-.139.05-.214a7,7,0,0,1,2.374-3.378,122.473,122.473,0,0,0,16.1,1.173q1.683,0,3.425-.064c1.42-.053,2.868-.14,4.333-.271A69.921,69.921,0,0,0-392.378,696c8.337-2.373,9.277-5.482,9.379-6.268a1.249,1.249,0,0,0,.012-.187,6.531,6.531,0,0,1,.879.621C-380.418,691.56-377.572,695.2-385.828,699.905Z" transform="translate(462.534 -679.579)" fill="#1e3160"/><path d="M-453.878,685.381s6.431-1.307,9.887-1.715a150.068,150.068,0,0,1,17.833-1.3c8.914,0,18.58,1.288,25.115,6.124,4.952,3.664,5.764,8.2,4.665,11.855-.951.061-2.482.148-3.586.21,1.52-1.447,2.688-3.629-.065-5.809-2.591-2.053-10.671-2.921-19.107-2.921a115.265,115.265,0,0,0-14.368.858,46.783,46.783,0,0,1-5.675.423,9.939,9.939,0,0,1-2.37-.21c-5.589-1.526-12.328-7.515-12.328-7.515m42.7.712.865,1.119s2.856.639,4.134,1.022c3.95,1.186,6.775,2.695,8.4,5.881a7.731,7.731,0,0,1,.877,2.564s-.228-5.028-6.238-8.009A39.265,39.265,0,0,0-411.175,686.094Zm-16.811-.711c-6.921.348-18.82,2.081-18.82,2.081s1.424.857,1.712,1.04c.566.364,1.355.815,1.355.815a134.032,134.032,0,0,1,18.62-2.568c.057-.005.112-.007.168-.011l-1.554-1.42C-426.985,685.336-427.478,685.356-427.986,685.383Zm15.425,1.666-1.016-1.238a57.867,57.867,0,0,0-10.9-.551l1.541,1.369A47.584,47.584,0,0,1-412.56,687.049Z" transform="translate(453.878 -682.366)" fill="#1e3160"/><path d="M-375.137,684.476h0Z" transform="translate(484.454 -681.547)" fill="#1e3160"/><path d="M-375.14,684.474l0,0h0Z" transform="translate(484.453 -681.547)" fill="#1e3160"/><path d="M-367.617,685.463a2.284,2.284,0,0,0-.63-.765,3.649,3.649,0,0,0-1.674-.625,18.179,18.179,0,0,0-2.827-.169h-9.678l-10.454,16.318h10.961a12.081,12.081,0,0,0,5.509-1.044,9.119,9.119,0,0,0,3.661-3.289,5.466,5.466,0,0,0,.932-2.424,1.927,1.927,0,0,0-.522-1.336c-.042-.033-.071-.072-.108-.108a11.959,11.959,0,0,0,2.155-1.18,7.79,7.79,0,0,0,2.142-2.27,4.065,4.065,0,0,0,.746-2.123v-.006h0v-.018A2.193,2.193,0,0,0-367.617,685.463Zm-7.047,4.215a4.644,4.644,0,0,1-1.931.394l-4.556-.007,1.655-2.571h5.244a1.362,1.362,0,0,1,.944.228C-372.869,688.048-373.4,689.141-374.664,689.678Zm-4.151,6.486a4.205,4.205,0,0,1-1.9.411h-4.6l1.627-2.571,5.246-.007c.4,0,.825.029.979.21C-377.1,694.622-377.556,695.624-378.815,696.164Z" transform="translate(477.564 -681.769)" fill="#1e3160"/><g transform="translate(124.967 2.106)"><path d="M-302.52,695.486l2.656-4.132,3.739-.01,1.967-3.081-3.7-.008,2.8-4.359H-299.8l-2.791,4.361h-2.485l-1.984,3.1h2.5l-3,4.643a4.468,4.468,0,0,0-.947,2.214,1.792,1.792,0,0,0,.182.807,1.663,1.663,0,0,0,.446.553,2.525,2.525,0,0,0,1.022.48,5.812,5.812,0,0,0,1.358.139l3.6-.008,2.056-3.2h-2.375a2.755,2.755,0,0,1-.827-.09c-.13-.044-.237-.178-.062-.475C-302.983,696.219-302.52,695.486-302.52,695.486Z" transform="translate(385.362 -683.878)" fill="#1e3160"/><path d="M-307.668,683.884l-2.311,3.583,4.757-.006,2.31-3.578Z" transform="translate(384.789 -683.883)" fill="#1e3160"/><path d="M-308.193,687.037l-7.644,11.916,4.741,0,7.649-11.914Z" transform="translate(382.514 -682.658)" fill="#1e3160"/><path d="M-348.825,687.039l-7.669,11.939h4.734s3.689-5.793,4.626-7.23a3.332,3.332,0,0,1,2.828-1.613c1.479,0,4.245-.007,4.245-.007l1.984-3.09Z" transform="translate(366.727 -682.658)" fill="#1e3160"/><path d="M-358.158,683.894l-2.3,3.591,4.8.012-8.206,12.694h5.421l8.141-12.706h6.723l2.237-3.6Z" transform="translate(363.864 -683.881)" fill="#1e3160"/><path d="M-328.4,688.561c-.185-.759-1.1-1.141-2-1.337a10.311,10.311,0,0,0-1.946-.187H-340.7l-1.988,3.082h8.055s1.649-.053,1.674.546c.01.254-.312.669-.346.732-.089,0-.959-.007-1.878-.007-1.394,0-3.293.022-4.257.124a10,10,0,0,0-2.557.593c-1.451.55-4.531,2.33-4.64,4.58,0,.03,0,.062,0,.093,0,1.4,1.5,2.03,2.053,2.175H-334.1l4.506-7.032a6.2,6.2,0,0,0,1.245-2.9A2.061,2.061,0,0,0-328.4,688.561Zm-7.683,7.194-6.314-.012a6.524,6.524,0,0,1,1.1-1.284c.278-.147.325-.2,1.88-.189h4.276Z" transform="translate(370.555 -682.658)" fill="#1e3160"/><path d="M-317.861,688.119a2.031,2.031,0,0,0-.644-.555,4.406,4.406,0,0,0-1.424-.451,12.732,12.732,0,0,0-1.974-.075h-7.175l-7.643,11.922h4.7l5.656-8.826,2.954-.014c1.251-.039.461,1.154.253,1.472l-4.749,7.368,4.727.013,4.591-7.186a8.257,8.257,0,0,0,.759-1.411,3.378,3.378,0,0,0,.273-1.233A1.769,1.769,0,0,0-317.861,688.119Z" transform="translate(374.405 -682.659)" fill="#1e3160"/><path d="M-314.713,690.125l7.319,0,1.991-3.092-8.959-.024a8.381,8.381,0,0,0-4.522,1.48,8.222,8.222,0,0,0-1.383,1.1,3.739,3.739,0,0,0-1.12,2.456,2.534,2.534,0,0,0,.075.6,1.859,1.859,0,0,0,.632.982,4.771,4.771,0,0,0,2.834.775c.126,0,1.1.007,1.9.015,1.084.018,1.6.3,1.529.66-.079.423-.726.49-1.147.548a10.1,10.1,0,0,1-1.426.086h-.007l-7.026,0-2.08,3.243,8.061,0a10.031,10.031,0,0,0,3.385-.579,6.727,6.727,0,0,0,3.487-2.292,4.862,4.862,0,0,0,.943-2.67,1.653,1.653,0,0,0-.144-.7,1.532,1.532,0,0,0-.783-.7,9.727,9.727,0,0,0-3.623-.566,12.888,12.888,0,0,1-1.792-.092c-.175-.047-.487-.208-.5-.45C-317.119,690.272-315.775,690.166-314.713,690.125Z" transform="translate(378.528 -682.668)" fill="#1e3160"/></g><path d="M-370.445,692.6a13.618,13.618,0,0,1,3.535-3.943A6.8,6.8,0,0,1-363,687.5h6.5l2.331-3.6h-7.236a15.667,15.667,0,0,0-7.913,1.985,17.962,17.962,0,0,0-6.024,6.031,12.349,12.349,0,0,0-1.83,3.973,4.368,4.368,0,0,0-.072.78,3.029,3.029,0,0,0,.715,2.027,3.806,3.806,0,0,0,1.862,1.17,11.106,11.106,0,0,0,3.138.337h6.879l2.325-3.628-7.008.015a8.089,8.089,0,0,1-1.9-.254,1.339,1.339,0,0,1-.427-.221.478.478,0,0,1-.15-.218.65.65,0,0,1-.036-.236,3.015,3.015,0,0,1,.286-1.091A17.367,17.367,0,0,1-370.445,692.6Z" transform="translate(483.635 -681.768)" fill="#1e3160"/></g></svg>