<svg xmlns="http://www.w3.org/2000/svg" width="1366" height="721.22" viewBox="0 0 1366 721.22">
  <path id="Path_2567" data-name="Path 2567" d="M1198.116,358.78V1080h-1366V360.43c15.88,11.3,32.52,22.57,45.47,37.23,25.73,29.14,37.13,82.65,71.65,107.54,31.07,22.42,79.79,13.05,116.96,31.36,34.17,16.84,60.23,63.72,98.77,76.6,36.06,12.06,81-10.75,120.25-2.56,37.21,7.77,71.59,47.42,111.14,51.37,37.87,3.79,78.06-28.22,117.6-28.22s79.72,32.02,117.6,28.22c39.55-3.96,73.92-43.6,111.13-51.37,39.25-8.19,84.2,14.62,120.25,2.56,38.54-12.88,64.61-59.76,98.77-76.6,37.18-18.31,85.9-8.94,116.97-31.36,34.51-24.89,45.91-78.39,71.64-107.54C1163.9,382.28,1181.546,370.64,1198.116,358.78Z" transform="translate(167.884 -358.78)" fill="#1e3160"/>
</svg>
