<svg xmlns="http://www.w3.org/2000/svg" width="16.692" height="16.688" viewBox="0 0 16.692 16.688"><path d="M8.342,6.3a4.279,4.279,0,1,0,4.279,4.279A4.272,4.272,0,0,0,8.342,6.3Zm0,7.06a2.782,2.782,0,1,1,2.782-2.782A2.787,2.787,0,0,1,8.342,13.363Zm5.452-7.235a1,1,0,1,1-1-1A1,1,0,0,1,13.794,6.128Zm2.834,1.013a4.939,4.939,0,0,0-1.348-3.5,4.971,4.971,0,0,0-3.5-1.348c-1.378-.078-5.507-.078-6.885,0A4.964,4.964,0,0,0,1.4,3.641a4.955,4.955,0,0,0-1.348,3.5c-.078,1.378-.078,5.507,0,6.885a4.939,4.939,0,0,0,1.348,3.5,4.977,4.977,0,0,0,3.5,1.348c1.378.078,5.507.078,6.885,0a4.939,4.939,0,0,0,3.5-1.348,4.971,4.971,0,0,0,1.348-3.5c.078-1.378.078-5.5,0-6.881Zm-1.78,8.36a2.816,2.816,0,0,1-1.586,1.586c-1.1.436-3.705.335-4.919.335s-3.824.1-4.919-.335A2.816,2.816,0,0,1,1.837,15.5C1.4,14.4,1.5,11.8,1.5,10.582s-.1-3.824.335-4.919A2.816,2.816,0,0,1,3.423,4.076c1.1-.436,3.705-.335,4.919-.335s3.824-.1,4.919.335a2.816,2.816,0,0,1,1.586,1.586c.436,1.1.335,3.705.335,4.919S15.283,14.406,14.848,15.5Z" transform="translate(0.005 -2.238)" fill="#f0595a"/></svg>