<svg id="logo-1" xmlns="http://www.w3.org/2000/svg" width="101.71" height="42.5" viewBox="0 0 101.71 42.5">
  <path id="Path_1677" data-name="Path 1677" d="M-577.694,763.933l-1.392,5.341c3.207.054,6.667,0,9.921,0a17.353,17.353,0,0,0,2.434-.068c.176-.025.631-.124.716-.114.075-.079-.015-.008.1-.076a1.564,1.564,0,0,0,.931-1.009c.36-1,.8-2.765,1.1-3.86.122-.446.406-1.2-.119-1.577a3.494,3.494,0,0,0-1.818-.359c-3.789.011-7.613.042-11.4,0a15.751,15.751,0,0,1-.48,1.72m-3.9,16.4a6.276,6.276,0,0,1-.185.862c-.076.3-.141.566-.21.84-.142.552-.274,1.1-.412,1.648l12.489-.037c.014-.018.015-.026.014-.031a.261.261,0,0,0,.051-.008c.063-.014.064,0,.117.008.149-.126.441-.061.84-.383a1.76,1.76,0,0,0,.679-1.136c.054-.165.089-.33.127-.479.088-.339.168-.637.251-.96l.77-2.86a1.845,1.845,0,0,0,.05-.5,1.014,1.014,0,0,0-.134-.493l-.153-.109a1.488,1.488,0,0,0-.148-.094c-.114-.055-.275-.062-.345-.141-.268,0-.466-.071-.767-.08l-2.38-.038c-3.136,0-6.476.05-9.564,0-.061.132-.124.455-.175.633-.064.225-.105.41-.171.636l-.339,1.315a5.841,5.841,0,0,0-.2.726c-.036.135-.067.221-.1.379C-581.522,780.131-581.526,780.268-581.592,780.329Zm11.7,3.281,23.793-21.327a1.467,1.467,0,0,0,.083-.445c1.524.049,3.121,0,4.654,0h4.64c1.21,0,3.615-.126,4.439.206a.758.758,0,0,1,.559.62,2.518,2.518,0,0,1-.125,1.023l-.445,1.855a17.269,17.269,0,0,1-.461,1.881,2.217,2.217,0,0,1-.448.729,1.708,1.708,0,0,1-.725.4,20.626,20.626,0,0,1-4.448.194h-9.247Zm-4.784,21.689c.176-.611.316-1.214.476-1.79l1.453-5.416c1.527.055,3.149.006,4.686.006h7.061a4.939,4.939,0,0,1,2.1.279c.669.342.413,1.065.237,1.7-.08.287-.174.608-.258.911-.048.176-.091.325-.135.469l-.387,1.387c-.247.852-.438,1.832-1.328,2.189-1,.4-3.08.257-4.468.257h-4.72C-547.712,783.967-549.357,783.912-550.888,783.972Zm-45.5-20.588a4.5,4.5,0,0,1-.257,1.6c-.072.27-.12.5-.184.744-.3,1.2-.564,2.589-.864,3.734l-.7,3.017c-.361,1.571-.8,3.211-1.106,4.783l-.381,1.637a28.791,28.791,0,0,1-.816,3.261,1.107,1.107,0,0,1-.09.153,2.955,2.955,0,0,1-.957,1.1,3.794,3.794,0,0,1-1.23.55,6.587,6.587,0,0,1-1.859.2c-.7,0-7.526.049-8.023-.008a1.926,1.926,0,0,1-1.186-.477l-.017-.023c-.51-.663-.02-2.043.173-2.776l.952-4.134c.068-.3.116-.544.185-.823l2.189-9.471c.026-.118.063-.273.094-.43l.3-1.238a3.77,3.77,0,0,1,.148-.378,2.884,2.884,0,0,1,.358-.651,3.511,3.511,0,0,1,1.076-.946,7.226,7.226,0,0,1,3.473-.606,62.534,62.534,0,0,1,7.442.105C-597.079,762.434-596.442,762.658-596.391,763.384Zm73.646-3.375c-.515-2.313-2.96-3.005-5.069-3.152-4.516-.313-9.332-.09-13.875-.09l-15.636.008-52.7.026c-.112.007-.273,0-.439,0a11.925,11.925,0,0,0-2.692.274l-1.323.452c-.218.1-.392.167-.6.283a8.779,8.779,0,0,0-1.341.877,11.007,11.007,0,0,0-3.369,5.1c-.3.827-.389,1.225-.626,2.036-.485,1.659-.931,3.984-1.378,5.722-.474,1.84-.873,3.833-1.357,5.743l-.656,2.892c-.055.267-.094.466-.148.741l-.4,2.3v1.659c.065.09.062.48.145.8a4.836,4.836,0,0,0,1.847,2.948,5.57,5.57,0,0,0,1.286.647c1.817.6,4.862.41,7.252.41h74.839c.677,0,1.239-.039,1.9-.039a15.9,15.9,0,0,0,4.573-.67,7.61,7.61,0,0,0,3.175-2.106,8.22,8.22,0,0,0,.781-1.114,19.81,19.81,0,0,0,1.575-5.161c.062-.28.1-.507.16-.767l.371-1.564c.305-1.286.768-2.833.3-4.106a2.094,2.094,0,0,0-1.615-1.281,5.242,5.242,0,0,1-.764-.205c.05-.04.009-.014.083-.048.02-.008.079-.03.09-.034l.632-.174a4.981,4.981,0,0,0,1.079-.531c.117-.08.205-.124.324-.2a7.034,7.034,0,0,0,1.063-1.075c1.062-1.312,1.531-3.9,1.945-5.556C-522.749,762.757-522.489,762.062-522.745,760.009Zm-65.22-2.192c2.471.039,4.986,0,7.464,0h18.76a11.884,11.884,0,0,1,2.958.309,5.174,5.174,0,0,1,2.175,1.213,3.81,3.81,0,0,1,.836,2.954,16.389,16.389,0,0,1-.524,2.825c-.047.193-.091.354-.121.564-.06.129-.007.18-.079.243a12.04,12.04,0,0,1-.274,1.259,12.159,12.159,0,0,1-.762,2.223,4.947,4.947,0,0,1-.246.48c-.054.085-.087.125-.147.216a5.213,5.213,0,0,1-3.509,2.38.442.442,0,0,0-.27.119,4.3,4.3,0,0,1,1.221.338,2.787,2.787,0,0,1,.851.56,2.721,2.721,0,0,1,.715,2.189c-.065.138-.086.7-.137.886l-.96,4.268c-.056.238-.105.459-.161.725a2.724,2.724,0,0,1-.213.708,5.666,5.666,0,0,1-.33,1.209.719.719,0,0,1-.194.352c.04.123.026.054-.021.072a1.442,1.442,0,0,1-.168.447,6.6,6.6,0,0,1-2.01,2.387c-.133.085-.225.163-.361.245a8.677,8.677,0,0,1-3.35,1.126,27.453,27.453,0,0,1-3.307.243c-1.183.007-2.369,0-3.552,0-7.086,0-14.279.056-21.34,0a5.239,5.239,0,0,1,.634-.492l.911-.784a11.2,11.2,0,0,0,2.091-3.113c.524-1.267.836-2.3,1.246-3.576,0-.2.543-2.381.6-2.644.358-1.546.713-3.111,1.065-4.662l1.936-8.392a12.987,12.987,0,0,0,.185-1.713c0-.172.028-.755.058-.927-.119-.132-.034-1.122-.218-1.492a4.137,4.137,0,0,0-.391-1.145,3.634,3.634,0,0,0-1.012-1.328c-.112-.1-.194-.165-.33-.269Z" transform="translate(624.356 -756.69)" fill="#1e3160" fill-rule="evenodd"/>
  <g id="Group_547" data-name="Group 547" transform="translate(0.509 37.758)">
    <g id="Group_546" data-name="Group 546">
      <path id="Path_1678" data-name="Path 1678" d="M-618.672,797.231a1.276,1.276,0,0,1,1.163,1.246,9.774,9.774,0,0,1,.041,1.128c0,1.121-.119,1.573-.515,1.9a2.106,2.106,0,0,1-1.344.376c-.25.014-.87.021-1.322.021a13.063,13.063,0,0,1-1.95-.076,1.223,1.223,0,0,1-.989-.627,3.426,3.426,0,0,1-.223-1.7,4.367,4.367,0,0,1,.1-1.288,1.186,1.186,0,0,1,.926-.912,7.541,7.541,0,0,1,2.04-.14A13.876,13.876,0,0,1-618.672,797.231Zm-3.468,1.232c-.187.146-.243.376-.243,1.044,0,.683.056.933.23,1.079s.418.181,1.483.181c1.218,0,1.469-.041,1.629-.264.133-.168.168-.4.168-1.024,0-1.17-.021-1.184-1.761-1.184C-621.673,798.3-621.958,798.331-622.14,798.463Z" transform="translate(623.811 -797.161)" fill="#1e3160"/>
      <path id="Path_1679" data-name="Path 1679" d="M-613.714,797.214h1.895l2.542,4.643h-1.546l-.46-.828h-2.994l-.446.828h-1.6Zm1.936,2.847-1-1.852-.989,1.852Z" transform="translate(623.309 -797.165)" fill="#1e3160"/>
      <path id="Path_1680" data-name="Path 1680" d="M-607.93,797.214h1.413v1.733h.738l1.922-1.733h1.943l-2.667,2.3,2.924,2.346h-2.054l-2.1-1.782h-.71v1.782h-1.413Z" transform="translate(622.747 -797.165)" fill="#1e3160"/>
      <path id="Path_1681" data-name="Path 1681" d="M-598.295,797.214h4.192a2.37,2.37,0,0,1,1.072.167c.376.195.529.508.529,1.1s-.209.919-.648,1c.626.119.835.39.835,1.065a1.154,1.154,0,0,1-.536,1.149,2.351,2.351,0,0,1-1.059.159h-4.386Zm3.753,1.852a1.047,1.047,0,0,0,.46-.056.383.383,0,0,0,.181-.348.379.379,0,0,0-.243-.383,1.336,1.336,0,0,0-.432-.035h-2.339v.822Zm.154,1.761a1.3,1.3,0,0,0,.432-.034.372.372,0,0,0,.222-.383.38.38,0,0,0-.237-.4,1.305,1.305,0,0,0-.452-.035h-2.493v.849Z" transform="translate(622.101 -797.165)" fill="#1e3160"/>
      <path id="Path_1682" data-name="Path 1682" d="M-588.513,797.214h1.895l2.541,4.643h-1.546l-.46-.828h-2.994l-.445.828h-1.6Zm1.936,2.847-1-1.852-.989,1.852Z" transform="translate(621.62 -797.165)" fill="#1e3160"/>
      <path id="Path_1683" data-name="Path 1683" d="M-581.515,800.249l-2.653-3.035h1.8l1.567,1.921,1.552-1.921h1.769l-2.618,3.035v1.608h-1.421Z" transform="translate(621.154 -797.165)" fill="#1e3160"/>
      <path id="Path_1684" data-name="Path 1684" d="M-574.078,797.214h4.192a2.37,2.37,0,0,1,1.072.167c.376.195.529.508.529,1.1s-.209.919-.647,1c.627.119.836.39.836,1.065a1.155,1.155,0,0,1-.536,1.149,2.346,2.346,0,0,1-1.058.159h-4.387Zm3.753,1.852a1.053,1.053,0,0,0,.46-.056.383.383,0,0,0,.181-.348.38.38,0,0,0-.244-.383,1.333,1.333,0,0,0-.431-.035h-2.34v.822Zm.153,1.761a1.292,1.292,0,0,0,.432-.034.372.372,0,0,0,.222-.383.381.381,0,0,0-.236-.4,1.313,1.313,0,0,0-.453-.035H-572.7v.849Z" transform="translate(620.478 -797.165)" fill="#1e3160"/>
      <path id="Path_1685" data-name="Path 1685" d="M-566.324,797.214h1.413v4.643h-1.413Z" transform="translate(619.958 -797.165)" fill="#1e3160"/>
      <path id="Path_1686" data-name="Path 1686" d="M-557.555,800.107a2.693,2.693,0,0,1-.125,1.114c-.181.4-.557.585-1.281.633-.285.028-.842.036-1.769.036-1.336,0-1.769-.063-2.144-.307-.46-.292-.592-.779-.592-2.158,0-1.226.14-1.664.627-1.942a4.083,4.083,0,0,1,2.165-.307c1.734,0,2.11.035,2.507.23.376.188.55.6.55,1.281v.153h-1.352c-.027-.508-.131-.55-1.357-.55-1.156,0-1.365.028-1.539.182s-.2.341-.2,1.093c0,1.114.1,1.2,1.462,1.2,1.052,0,1.2-.007,1.4-.091s.278-.23.278-.564Z" transform="translate(619.767 -797.162)" fill="#1e3160"/>
      <path id="Path_1687" data-name="Path 1687" d="M-553.8,800.249l-2.653-3.035h1.8l1.567,1.921,1.552-1.921h1.769l-2.618,3.035v1.608H-553.8Z" transform="translate(619.296 -797.165)" fill="#1e3160"/>
      <path id="Path_1688" data-name="Path 1688" d="M-542.718,800.107a2.685,2.685,0,0,1-.126,1.114c-.181.4-.557.585-1.281.633-.285.028-.842.036-1.768.036-1.337,0-1.769-.063-2.145-.307-.46-.292-.592-.779-.592-2.158,0-1.226.14-1.664.627-1.942a4.086,4.086,0,0,1,2.165-.307c1.734,0,2.109.035,2.507.23.376.188.55.6.55,1.281v.153h-1.351c-.028-.508-.133-.55-1.358-.55-1.156,0-1.364.028-1.539.182s-.2.341-.2,1.093c0,1.114.1,1.2,1.462,1.2,1.051,0,1.2-.007,1.4-.091s.279-.23.279-.564Z" transform="translate(618.772 -797.162)" fill="#1e3160"/>
      <path id="Path_1689" data-name="Path 1689" d="M-540.95,797.214h1.413v3.495h3.2v1.149h-4.61Z" transform="translate(618.258 -797.165)" fill="#1e3160"/>
      <path id="Path_1690" data-name="Path 1690" d="M-529.917,797.214v1.051h-3.752v.8h3.537v.919h-3.537v.822h3.8v1.05h-5.194v-4.643Z" transform="translate(617.863 -797.165)" fill="#1e3160"/>
      <path id="Path_1691" data-name="Path 1691" d="M-526.9,800.372c.014.32.049.4.216.459a4.182,4.182,0,0,0,.947.07c1.636,0,1.831-.048,1.831-.432a.366.366,0,0,0-.236-.375c-.154-.05-.154-.05-.885-.056h-1.281a3.236,3.236,0,0,1-1.511-.2c-.334-.174-.487-.543-.487-1.177,0-.836.236-1.19.9-1.351a8.428,8.428,0,0,1,1.936-.132c1.629,0,2.005.042,2.339.258s.425.5.425,1.2h-1.379c0-.4-.139-.459-1.051-.459-.453,0-1.059.013-1.282.027-.376.028-.5.126-.5.39a.349.349,0,0,0,.3.369,2.262,2.262,0,0,0,.571.035h1.316c.126,0,.752.021.989.035.884.042,1.232.432,1.232,1.365,0,.856-.251,1.232-.933,1.379a11.551,11.551,0,0,1-2.047.119c-1.608,0-1.964-.036-2.375-.244-.285-.14-.431-.494-.431-1.045,0-.042,0-.133.007-.23Z" transform="translate(617.41 -797.162)" fill="#1e3160"/>
    </g>
  </g>
</svg>
