<svg xmlns="http://www.w3.org/2000/svg" width="165.197" height="43.593" viewBox="0 0 165.197 43.593"><g transform="translate(0 0)"><rect width="73.5" height="0.891" transform="translate(80.632 42.702)" fill="#1e3160"/><path d="M-501.247,703.348a.311.311,0,0,1-.038.429c-.254-.011-.067-.017-.287-.023v0c-.665-.021-1.328-.066-1.993-.066-.522,0-1.066.044-1.605.062,0,0-.453.018-.709.027a.31.31,0,0,1-.039-.428l.461-.037c.134-.006.287-.022.287-.022.463-.04.96-.068.96-.522a2.955,2.955,0,0,0-.266-.888l-.606-1.372c-.4-.923-.266-.923-1.177-.923h-2.58c-.76,0-.646.073-.928.723l-.57,1.356a3.011,3.011,0,0,0-.266.994c0,.486.55.563.989.611,0,0,.164.017.26.024l.477.055a.312.312,0,0,1-.037.43c-.253-.011-.71-.025-.71-.025-.422-.023-.841-.066-1.264-.066-.5,0-1,.064-1.5.07,0,0-.452.017-.708.025a.312.312,0,0,1-.038-.43l.45-.044c.1-.012.305-.029.305-.029a1.067,1.067,0,0,0,.7-.259,6.029,6.029,0,0,0,.719-1.428l3.661-9.055c.058-.142.115-.4.325-.4.149,0,.227.238.265.346l3.833,9.072c.275.638.564,1.536,1.309,1.7.082.014.165.026.26.037Zm-6.557-7.917c.039-.092.174-.548.331-.548.116,0,.271.475.31.548l1.322,3.106c0,.036.137.328.137.4,0,.2-.449.145-.565.145H-508.5c-.078,0-.7.073-.7-.109a.95.95,0,0,1,.058-.22Z" transform="translate(666.375 -665.982)" fill="#1e3160" fill-rule="evenodd"/><path d="M-516.974,694.972c0-1.825-.037-2.117-1.133-2.2l-.467-.034c-.111-.068-.075-.378.039-.43.929.033,1.562.052,2.343.052.745,0,1.376-.02,2.306-.052.113.052.149.362.038.43l-.466.034c-1.1.088-1.132.38-1.132,2.2V701.1c0,1.825.036,2.066,1.132,2.186l.466.051c.111.07.075.379-.038.43-.93-.033-1.561-.051-2.306-.051-.781,0-1.414.018-2.343.051a.314.314,0,0,1-.039-.43l.467-.051c1.1-.121,1.133-.362,1.133-2.186Z" transform="translate(665.904 -665.968)" fill="#1e3160"/><path d="M-527.347,694.5c0-1.289-.083-1.62-.989-1.691l-.645-.062c-.074-.065-.114-.416.02-.423,1.09-.084,2.461-.138,4.339-.138a8.8,8.8,0,0,1,3.388.485,2.283,2.283,0,0,1,1.533,2.174c0,1.253-.847,1.9-2.056,2.384,0,.173.16.227.384.259a3.045,3.045,0,0,1,2.7,2.906c0,2.019-1.735,3.376-5.367,3.376-.583,0-1.572-.052-2.421-.052-.887,0-1.574.034-2.319.052a.3.3,0,0,1-.041-.435l.363-.054c1.07-.154,1.111-.347,1.111-2.172Zm1.655,2.31c0,.489.018.522,1.048.489,2.058-.07,3.168-.592,3.168-2.225,0-1.705-1.474-2.352-3-2.352a2.845,2.845,0,0,0-.929.106c-.2.051-.281.139-.281.453Zm0,4.037a3.016,3.016,0,0,0,.424,1.9,2.158,2.158,0,0,0,1.592.486c1.8,0,3.169-.7,3.169-2.435,0-1.376-.806-2.974-4.014-2.974-1.09,0-1.17.1-1.17.453Z" transform="translate(665.002 -665.978)" fill="#1e3160"/><path d="M-529.6,703.286c-.1-.01-.274-.022-.274-.022a.737.737,0,0,1-.512-.2c-.24-.254-.221-.988-.221-1.281v-7.544c0-.331-.08-1.044.16-1.3a.91.91,0,0,1,.594-.172h0c.138-.01.14-.01.26-.014l.479-.038c.113-.07.077-.379-.038-.429-.255.011-.487.008-.711.014h-2.031c-.221,0-.422,0-.543.236l-4.14,8.626-3.658-8.333c-.12-.293-.14-.529-.522-.529h-2.116c-.222-.006-.463,0-.719-.014-.115.05-.152.36-.038.429l.479.038c.1.008.276.018.276.018.792.05.842.228.771,1.061l-.624,8.1c-.055.815-.1,1.244-.949,1.321,0,0-.182.023-.279.033l-.478.055a.306.306,0,0,0,.038.426l.7-.021c.433-.023.872-.06,1.311-.06.475,0,.951.044,1.425.063v0c.218.005.452.014.707.022a.309.309,0,0,0,.038-.43l-.478-.051-.266-.024c-1.229-.086-1.2-.951-1.125-2.013l.582-7.529h.143l3.959,9.265c.039.128.1.348.3.348.183,0,.241-.2.3-.328l4.459-9.505h.142v8.277c0,.329.04,1.007-.3,1.264a2.571,2.571,0,0,1-.76.211c-.079.012-.162.026-.259.034l-.477.051a.31.31,0,0,0,.037.43l.7-.022c.65-.017,1.306-.066,1.965-.066.475,0,1.4.044,1.4.044.221.008.473.033.728.04a.311.311,0,0,0,.039-.43Z" transform="translate(663.663 -665.969)" fill="#1e3160"/><path d="M-546.172,696.639a11.662,11.662,0,0,0-.35-3.564,1.161,1.161,0,0,0-.912-.363l-.456-.032a.3.3,0,0,1,.037-.417c.694.037,1.37.054,2.082.054.766,0,1.258-.017,1.916-.052a.287.287,0,0,1,.036.415l-.437.032a1.1,1.1,0,0,0-.913.412,14.531,14.531,0,0,0-.256,3.515v1.945A5.763,5.763,0,0,1-546.7,702.7a4.968,4.968,0,0,1-3.487,1.255,5.411,5.411,0,0,1-3.414-.944c-.967-.76-1.424-2.016-1.424-4.066v-4.062c0-1.792-.036-2.085-1.094-2.172l-.456-.032c-.11-.07-.076-.363.034-.417.915.037,1.537.054,2.266.054.749,0,1.351-.017,2.244-.052.11.052.147.346.037.415l-.438.032c-1.06.087-1.094.38-1.094,2.172V698.6c0,2.773.913,4.6,3.706,4.6,2.646,0,3.652-1.964,3.652-4.58Z" transform="translate(662.61 -665.971)" fill="#1e3160"/><path d="M-563.668,694.939c0-1.812-.038-2.084-1.231-2.172l-.473-.034c-.115-.068-.077-.378.036-.43,1.063.033,1.706.052,2.464.052.74,0,1.383-.02,2.332-.052.113.052.151.362.037.43l-.456.034c-1.117.088-1.155.361-1.155,2.172v5.992c0,1.086.058,1.532.4,1.857.208.19.566.4,2.065.4a5.434,5.434,0,0,0,2.311-.222,3.7,3.7,0,0,0,1.25-1.708c.114-.084.475-.014.475.107a12.811,12.811,0,0,1-.8,2.408c-.967-.033-2.767-.051-4.716-.051h-1.744c-.8,0-1.4.018-2.464.051a.311.311,0,0,1-.036-.43l.568-.051c1.1-.1,1.136-.342,1.136-2.152Z" transform="translate(661.847 -665.968)" fill="#1e3160"/><path d="M-577.481,698.138a6.109,6.109,0,0,1,6.438-6.08c4.175,0,6.275,2.875,6.275,5.909a6.029,6.029,0,0,1-6.275,6.007C-575.058,703.975-577.481,701.238-577.481,698.138Zm10.9.362c0-2.843-1.319-5.908-4.774-5.908-1.882,0-4.321,1.221-4.321,5,0,2.548,1.3,5.855,4.863,5.855C-568.639,703.442-566.578,701.893-566.578,698.5Z" transform="translate(660.803 -665.989)" fill="#1e3160"/><path d="M-587.774,691.6a9.008,9.008,0,0,1,5.636-1.768,16.084,16.084,0,0,1,3.693.5,1.5,1.5,0,0,0,.585.081c.02.478.124,1.789.292,3.059a.443.443,0,0,1-.564.04c-.313-1.413-1.252-3.037-4.278-3.037-3.192,0-5.9,2.019-5.9,6.322,0,4.369,2.773,6.78,6.2,6.78a4.446,4.446,0,0,0,4.362-2.974.436.436,0,0,1,.541.084,7.734,7.734,0,0,1-1,2.847,4.264,4.264,0,0,0-.729.209,12.255,12.255,0,0,1-3.3.478,9.157,9.157,0,0,1-5.2-1.393,6.694,6.694,0,0,1-2.961-5.717A6.893,6.893,0,0,1-587.774,691.6Z" transform="translate(659.683 -666.182)" fill="#1e3160"/><path d="M-520.608,683.281c-.889,0-.925.035-.925.552v2.428c0,1.81.09,2.049,1.129,2.154l.539.052c.11.07.073.377-.038.43-1-.035-1.63-.053-2.353-.053-.8,0-1.427.035-2.149.053a.317.317,0,0,1-.039-.43l.316-.052c1.039-.173,1.075-.343,1.075-2.154v-6.2c0-1.808-.129-2.1-1.093-2.17l-.482-.034c-.111-.07-.075-.38.037-.431.91.018,1.539.051,2.336.051.723,0,1.353-.016,2.149-.051.11.051.148.362.037.431l-.353.034c-1.075.1-1.111.362-1.111,2.17v1.98c0,.535.036.551.925.551h5.3c.889,0,.927-.016.927-.551v-1.98c0-1.808-.038-2.067-1.131-2.17l-.353-.034c-.111-.07-.075-.38.039-.431.851.035,1.481.051,2.241.051.723,0,1.354-.016,2.186-.051.113.051.15.362.039.431l-.389.034c-1.075.1-1.114.362-1.114,2.17v6.2c0,1.81.039,2.033,1.114,2.154l.445.052c.11.07.073.377-.038.43-.889-.035-1.52-.053-2.243-.053-.76,0-1.427.018-2.241.053a.315.315,0,0,1-.039-.43l.353-.052c1.131-.173,1.131-.343,1.131-2.154v-2.428c0-.517-.038-.552-.927-.552Z" transform="translate(665.379 -667.258)" fill="#1e3160"/><path d="M-530.049,689.095a7.246,7.246,0,0,1-3.17-.638,6.871,6.871,0,0,1-.55-2.411c.1-.121.406-.154.489-.051a3.52,3.52,0,0,0,3.495,2.567c1.707,0,2.541-.948,2.541-1.982,0-.756-.182-1.6-1.666-2.41l-1.931-1.068a3.683,3.683,0,0,1-2.2-2.962c0-1.634,1.5-2.963,4.145-2.963A9.138,9.138,0,0,1-527,677.4a3.229,3.229,0,0,0,.712.1,6.465,6.465,0,0,1,.367,2.1.455.455,0,0,1-.509.051,2.549,2.549,0,0,0-2.763-1.944c-1.993,0-2.418,1.119-2.418,1.909,0,1,.975,1.722,1.726,2.119l1.627.861c1.282.673,2.541,1.671,2.541,3.308C-525.721,687.8-527.407,689.095-530.049,689.095Z" transform="translate(664.593 -667.279)" fill="#1e3160"/><path d="M-538.092,680.1c0-1.826-.038-2.118-1.166-2.2l-.478-.034c-.114-.07-.076-.38.038-.431.956.035,1.606.051,2.409.051.764,0,1.414-.016,2.369-.051.117.051.154.362.04.431l-.479.034c-1.127.087-1.166.379-1.166,2.2v6.131c0,1.825.039,2.067,1.166,2.188l.479.052c.114.07.077.377-.04.43-.955-.035-1.6-.053-2.369-.053-.8,0-1.453.018-2.409.053a.312.312,0,0,1-.038-.43l.478-.052c1.128-.121,1.166-.363,1.166-2.188Z" transform="translate(664.07 -667.258)" fill="#1e3160"/><path d="M-544.778,686.3c0,1.81.037,2.066,1.075,2.154l.573.052c.108.07.074.377-.034.43-1.023-.035-1.63-.053-2.347-.053s-1.343.018-2.49.053a.292.292,0,0,1,0-.43l.643-.052c1.024-.088,1.112-.343,1.112-2.154v-7.7c0-.536,0-.552-.538-.552h-.986a3.785,3.785,0,0,0-2.2.431,3.135,3.135,0,0,0-.805,1.188.355.355,0,0,1-.466-.121,17.621,17.621,0,0,0,.68-2.566.465.465,0,0,1,.342,0c.107.552.7.533,1.521.533h7.255c.967,0,1.127-.033,1.4-.481.09-.035.288-.016.322.051a10.073,10.073,0,0,0-.268,2.619.346.346,0,0,1-.464.035c-.055-.431-.181-1.068-.45-1.257a3.665,3.665,0,0,0-2.077-.431h-1.271c-.537,0-.521.016-.521.586Z" transform="translate(663.078 -667.299)" fill="#1e3160"/><path d="M-554.915,680.1c0-1.826-.039-2.118-1.167-2.2l-.478-.034c-.115-.07-.077-.38.039-.431.955.035,1.606.051,2.408.051.765,0,1.415-.016,2.37-.051.116.051.152.362.04.431l-.48.034c-1.127.087-1.165.379-1.165,2.2v6.131c0,1.825.038,2.067,1.165,2.188l.48.052c.112.07.076.377-.04.43-.955-.035-1.605-.053-2.37-.053-.8,0-1.453.018-2.408.053a.308.308,0,0,1-.039-.43l.478-.052c1.128-.121,1.167-.363,1.167-2.188Z" transform="translate(662.611 -667.258)" fill="#1e3160"/><path d="M-556.828,688.477a.31.31,0,0,1-.037.43l-.7-.024h-1.739c-.409,0-.53-.35-.692-.628l-2-3.6c-.736-1.29-.716-1.439-2.266-1.439-.165,0-.348-.018-.45.093-.123.128-.1.572-.1.737v2.844c0,1.107-.07,1.429,1.075,1.506l.268.026.482.044a.307.307,0,0,1-.038.43l-.707-.022h0c-.621-.02-1.224-.068-1.856-.068s-1.255.049-1.884.068c0,0-.451.016-.706.027a.312.312,0,0,1-.038-.433l.48-.048.271-.031c1.136-.1,1.041-.423,1.041-1.5v-7.549c0-1.181.054-1.438-1.325-1.516-.386-.022-.512.062-.512-.237,0-.2,0-.277.366-.277.654,0,1.431.031,2.083.031,1.183,0,2.245-.031,3.409-.031,1.939,0,3.858.867,3.858,2.8,0,1.68-1.531,2.658-3.226,2.861.653.091.96.737,1.245,1.217l1.653,2.879c.329.579.609,1.2,1.311,1.326.08.013.167.025.263.035Zm-8.008-9.3c0-1.291.039-1.477,1.592-1.477,1.817,0,2.939.923,2.939,2.621a2.16,2.16,0,0,1-.94,1.881,4.2,4.2,0,0,1-2.552.61c-.347,0-1.04.129-1.04-.33Z" transform="translate(661.6 -667.268)" fill="#1e3160" fill-rule="evenodd"/><path d="M-578.073,678.269c0-1.491-.1-1.885-1.114-1.966l-.7-.05c-.114-.09-.081-.494.023-.5,1.207-.109,2.732-.162,4.812-.162a9.352,9.352,0,0,1,3.76.565,2.637,2.637,0,0,1,1.7,2.52c0,1.453-.941,2.2-2.282,2.763,0,.2.179.261.424.3a3.459,3.459,0,0,1,3,3.367c0,2.34-1.926,3.912-5.952,3.912-.65,0-1.747-.061-2.685-.061-.986,0-1.746.041-2.573.061a.365.365,0,0,1-.047-.505l.4-.06c1.186-.18,1.231-.4,1.231-2.52Zm1.834,2.683c0,.565.022.605,1.165.565,2.281-.08,3.513-.686,3.513-2.581,0-1.976-1.634-2.723-3.334-2.723a3,3,0,0,0-1.03.122c-.225.061-.314.162-.314.524Zm0,4.678a3.607,3.607,0,0,0,.472,2.2,2.307,2.307,0,0,0,1.766.564c1.993,0,3.514-.805,3.514-2.823,0-1.591-.9-3.447-4.452-3.447-1.211,0-1.3.122-1.3.524Z" transform="translate(660.589 -667.417)" fill="#1e3160"/><path d="M-605.647,690.966l1.257.522,2.787-1.944Z" transform="translate(658.361 -666.207)" fill="#1e3160"/><path d="M-648.318,690.656l-3.3-1.16.167-.405,3.718,1.24.017-.009.491-.278.2-.122-4.057-1.728.171-.424,9.054,3.661.3-.124-8.978-4.374.2-.412,9.513,4.428.132-.067-9.225-5.232.189-.391,13.322,7.247c.108-.2.339-.569.455-.765a118.961,118.961,0,0,0-9.953-8.338,118.358,118.358,0,0,0,11.231,6.5c.2-.256.371-.461.59-.7l-11.364-10,.305-.314,9.172,7.819-8.5-8.51.317-.331,9.541,9.221-8.883-9.856.341-.306,8.21,8.79-7.493-9.44.322-.292,9.6,11.686c.25-.214.455-.377.714-.576a118.167,118.167,0,0,0-6.078-11.4,118.336,118.336,0,0,0,7.934,10.174c.279-.155.561-.305.849-.445l-.048-.034-6.729-13.43.4-.177,5.576,10.685-4.691-11.073.418-.187,5.393,12.123-4.543-12.466.43-.156,4.316,11.226-3.409-11.561.41-.15,4.488,14.336-.007.038.011,0c.3-.1.6-.189.907-.272a118.129,118.129,0,0,0-1.363-12.777,118.676,118.676,0,0,0,3.525,12.349c.314-.038.63-.071.95-.093l-.009-.014h.039l-.023-.033-1.209-14.976.439-.012,1.166,11.995-.2-12.025.457-.016.459,13.26.457-13.26.458.016-.2,12.025,1.168-11.995.437.012-1.208,14.976-.024.033h.008l0,0h.02c.312.021.623.051.93.088a118.624,118.624,0,0,0,3.515-12.334,119.146,119.146,0,0,0-1.358,12.747c.311.081.615.171.916.27l4.473-14.287.411.151-3.412,11.559,4.32-11.224.429.156-4.542,12.466,5.392-12.123.418.187-4.693,11.072,5.578-10.684.4.177-6.707,13.384.013,0c.276.134.546.277.814.426a118.8,118.8,0,0,0,7.893-10.129,118.9,118.9,0,0,0-6.046,11.333c.258.195.512.4.757.608l9.491-11.561.323.294-7.492,9.439L-600.8,677l.34.308-8.883,9.856,9.541-9.22.318.328-8.5,8.511,9.174-7.818.3.314-11.226,9.892.008.007c.195.218.385.443.569.672A118.472,118.472,0,0,0-598.01,683.4a118.573,118.573,0,0,0-9.877,8.269c.138.229.36.623.489.861l13.132-7.15.19.392-10.484,5.946,10.9-5.074.2.411-10.156,4.949.195.07,10.333-4.179.173.422-9.606,4.086.18.077,6.4-2.134.963-.674.321.243,2.106-.7.167.4-1.825.643,2.634,2.008.842.471a32.2,32.2,0,0,0-31.3-24.671A32.2,32.2,0,0,0-653.5,693.488c.041-.017.079-.036.121-.057l.384-.172.238-.115Z" transform="translate(654.213 -668.069)" fill="#1e3160"/><path d="M-653.622,704.336a52.89,52.89,0,0,1,8.711-.95c10.442,0,24.884,5.88,35.367,5.88,7.689,0,15.188-2.11,19.274-5.187a32.332,32.332,0,0,0,.487-5.6,32.15,32.15,0,0,0-.886-7.514l-4.369-2.436-5.126,3.593-3.449-1.343c-1.167.591-8.371,5.411-8.371,5.411l-2.764-2-2.965-.586-3.956-2.88-4.537,3.112s-5.063,2.94-5.235,2.94-6.109-4.7-6.109-4.7l-2.733-2.881c-.464.292-2.323,1.146-2.323,1.146l-.1.026-1.8-.556-2.182-1.159-6.637,3.009c-.041.021-.079.039-.121.057a32.367,32.367,0,0,0-.714,6.767A32.3,32.3,0,0,0-653.622,704.336Z" transform="translate(654.156 -666.295)" fill="#1e3160"/></g></svg>