<svg xmlns="http://www.w3.org/2000/svg" width="176" height="97.475" viewBox="0 0 176 97.475"><g transform="translate(-1150.848 -100.643)"><path d="M1306.381,132.623a12.917,12.917,0,0,1-1.676-6.371v-.008h.033v-.008a12.915,12.915,0,0,1,1.676-6.37,6.06,6.06,0,0,0,.494-.8,6.211,6.211,0,0,0-3.887-8.845c-1.376-.375-2.867-.166-4.272-.417a12.907,12.907,0,0,1-2.2-.6,13.094,13.094,0,0,1-3.908-2.278,15.836,15.836,0,0,1-2.745-3.2,6.583,6.583,0,0,0-5.409-3.079h-.025a6.583,6.583,0,0,0-5.408,3.079,15.836,15.836,0,0,1-2.745,3.2,13.1,13.1,0,0,1-3.908,2.278,12.916,12.916,0,0,1-2.2.6c-1.405.252-2.9.043-4.272.417a6.211,6.211,0,0,0-3.887,8.845,6.059,6.059,0,0,0,.494.8,12.915,12.915,0,0,1,1.676,6.37v.008h-.033v.008a12.917,12.917,0,0,1-1.676,6.371,6.063,6.063,0,0,0-.493.8,6.211,6.211,0,0,0,3.886,8.845c1.377.375,2.867.165,4.272.417a12.972,12.972,0,0,1,2.2.6,13.113,13.113,0,0,1,3.908,2.278,15.856,15.856,0,0,1,2.745,3.2,6.58,6.58,0,0,0,5.408,3.079h.025a6.58,6.58,0,0,0,5.409-3.079,15.856,15.856,0,0,1,2.745-3.2,13.113,13.113,0,0,1,3.908-2.278,12.96,12.96,0,0,1,2.2-.6c1.406-.252,2.9-.042,4.273-.417a6.212,6.212,0,0,0,3.886-8.845A6.1,6.1,0,0,0,1306.381,132.623Zm-13.517-13.011a1.024,1.024,0,0,1-1.718.753,8.177,8.177,0,0,0-5.714-2.2,8.078,8.078,0,0,0,0,16.152,8.206,8.206,0,0,0,5.7-2.188,1.024,1.024,0,0,1,1.728.744v2.787a1.024,1.024,0,0,1-.359.779,11.217,11.217,0,0,1-7.394,2.52,12.725,12.725,0,0,1,0-25.439,11.221,11.221,0,0,1,7.394,2.52,1.022,1.022,0,0,1,.359.779Z" transform="translate(-45.61 0)" fill="#fff"/><g transform="translate(1150.848 164.737)"><path d="M1170.282,213.964a11,11,0,0,0-7.251-2.46,12.553,12.553,0,0,0,0,25.1,11,11,0,0,0,7.253-2.462l.022-.019a.381.381,0,0,0,.135-.291v-3.074a.381.381,0,0,0-.643-.277l-.116.109a9.093,9.093,0,0,1-6.32,2.429,8.965,8.965,0,0,1,0-17.926,9.165,9.165,0,0,1,6.324,2.434l.115.106a.381.381,0,0,0,.64-.28v-3.072a.38.38,0,0,0-.135-.291Z" transform="translate(-1150.848 -210.509)" fill="#fff"/><path d="M1205.33,223.352h-2.853a.381.381,0,0,0-.381.368l-.082,2.355a8.008,8.008,0,0,0-6.364-3.054,9.17,9.17,0,0,0,0,18.334,8.009,8.009,0,0,0,6.364-3.054l.082,2.354a.381.381,0,0,0,.381.368h2.853a.381.381,0,0,0,.381-.381V223.733A.381.381,0,0,0,1205.33,223.352Zm-3.668,8.8a5.539,5.539,0,0,1-5.582,5.615,5.582,5.582,0,1,1,0-11.165A5.507,5.507,0,0,1,1201.662,232.155Z" transform="translate(-1165.656 -215.265)" fill="#fff"/><path d="M1234.359,223.021a7.913,7.913,0,0,0-6.346,3.041l-.1-2.345a.381.381,0,0,0-.381-.365h-2.819a.381.381,0,0,0-.381.381v24.532a.381.381,0,0,0,.381.381h2.988a.381.381,0,0,0,.381-.381V238.41a7.817,7.817,0,0,0,6.279,2.944,8.99,8.99,0,0,0,8.968-9.2,9.186,9.186,0,0,0-2.584-6.445A8.819,8.819,0,0,0,1234.359,223.021Zm5.218,9.134a5.638,5.638,0,0,1-5.649,5.615,5.582,5.582,0,1,1,0-11.165A5.606,5.606,0,0,1,1239.577,232.155Z" transform="translate(-1181.188 -215.265)" fill="#fff"/><path d="M1261.875,213.311a2.052,2.052,0,0,0-2.074,2.074,2.076,2.076,0,0,0,2.074,2.074,2.052,2.052,0,0,0,2.074-2.074A2.028,2.028,0,0,0,1261.875,213.311Z" transform="translate(-1195.833 -211.256)" fill="#fff"/><rect width="3.75" height="17.671" rx="0.649" transform="translate(64.167 8.088)" fill="#fff"/><path d="M1278.845,220.089h-3.1V215.5a.382.382,0,0,0-.382-.381h-2.954a.381.381,0,0,0-.382.381v4.591h-2.005a.381.381,0,0,0-.381.381v2.822a.381.381,0,0,0,.381.381h2.005v13.706a.381.381,0,0,0,.382.381h2.954a.381.381,0,0,0,.382-.381V223.673h3.1a.381.381,0,0,0,.381-.381V220.47A.381.381,0,0,0,1278.845,220.089Z" transform="translate(-1199.897 -212.001)" fill="#fff"/><path d="M1305.778,223.352h-2.853a.381.381,0,0,0-.381.368l-.082,2.355a8.01,8.01,0,0,0-6.365-3.054,9.17,9.17,0,0,0,0,18.334,8.011,8.011,0,0,0,6.365-3.054l.082,2.354a.381.381,0,0,0,.381.368h2.853a.381.381,0,0,0,.381-.381V223.733A.381.381,0,0,0,1305.778,223.352Zm-3.667,8.8a5.54,5.54,0,0,1-5.583,5.615,5.582,5.582,0,1,1,0-11.165A5.507,5.507,0,0,1,1302.111,232.155Z" transform="translate(-1207.13 -215.265)" fill="#fff"/><rect width="3.75" height="25.759" rx="0.649" transform="translate(102.117 0)" fill="#fff"/><path d="M1362.678,223.471a5.946,5.946,0,0,0,2.25-4.854c0-4.1-2.906-6.549-7.775-6.549h-6.93a.382.382,0,0,0-.382.382v23.67a.381.381,0,0,0,.382.381h7.427c5.468,0,8.6-2.543,8.6-6.979A7.01,7.01,0,0,0,1362.678,223.471Zm-.141,5.918c0,2.341-1.644,3.528-4.886,3.528h-4.058v-7.452h4.224C1360.772,225.464,1362.537,226.931,1362.537,229.388Zm-8.945-7.509v-6.226h3.561c1.851,0,4.058.543,4.058,3.13,0,1.329-.421,3.1-4.058,3.1Z" transform="translate(-1233.01 -210.742)" fill="#fff"/><rect width="3.75" height="17.671" rx="0.649" transform="translate(135.007 8.088)" fill="#fff"/><path d="M1382.533,213.311a2.052,2.052,0,0,0-2.074,2.074,2.077,2.077,0,0,0,2.074,2.074,2.052,2.052,0,0,0,2.074-2.074A2.028,2.028,0,0,0,1382.533,213.311Z" transform="translate(-1245.651 -211.256)" fill="#fff"/><path d="M1401.616,225.679l7.513-7.123a.382.382,0,0,0-.262-.658h-4.177a.381.381,0,0,0-.262.1l-7.779,7.355V210.192a.381.381,0,0,0-.381-.382h-2.988a.381.381,0,0,0-.381.382v25a.381.381,0,0,0,.381.381h2.988a.381.381,0,0,0,.381-.381v-4.813l2.291-2.155,5.86,7.184.019.023a.38.38,0,0,0,.3.142h3.724a.381.381,0,0,0,.3-.621Z" transform="translate(-1250.787 -209.81)" fill="#fff"/><path d="M1435.812,225.835a8.516,8.516,0,0,0-6.455-2.814,8.757,8.757,0,0,0-8.835,9.067,8.884,8.884,0,0,0,9.1,9.266,8.2,8.2,0,0,0,8.089-5.528l.022-.077a.382.382,0,0,0-.317-.484l-2.647-.348a.355.355,0,0,0-.05,0,.381.381,0,0,0-.342.214l-.022.044a5.075,5.075,0,0,1-4.733,2.731c-2.929,0-5.019-1.739-5.317-4.37h13.506a.382.382,0,0,0,.381-.382v-.8A9.734,9.734,0,0,0,1435.812,225.835Zm-1.421,4.743h-10.079a5.146,5.146,0,0,1,10.079,0Z" transform="translate(-1262.192 -215.265)" fill="#fff"/></g></g></svg>