<svg xmlns="http://www.w3.org/2000/svg" xmlns:xlink="http://www.w3.org/1999/xlink" width="480" height="400" viewBox="0 0 480 400"><defs><clipPath id="a"><rect width="480" height="400" transform="translate(0.675 -0.332)" fill="#fff" stroke="#707070" stroke-width="1"/></clipPath></defs><g transform="translate(-0.675 0.332)" clip-path="url(#a)"><g transform="translate(25.284 15.675)"><g transform="translate(0 59.381)"><line y1="206.641" x2="344.123" transform="translate(0 117.188)" fill="none" stroke="#1a1818" stroke-linecap="round" stroke-linejoin="round" stroke-width="0.505"/><g transform="translate(200.138 253.99)"><path d="M3694.73,469.027l11.3,1.021-21.762,17.206L3671.5,486.1Z" transform="translate(-3671.5 -341.946)" fill="#fff"/><path d="M3587.425,394.94l11.3,1.021-21.762,17.206-12.768-1.153Z" transform="translate(-3500.321 -311.96)" fill="#fff"/><path d="M3487.369,314.239l11.3,1.021-21.762,17.206-12.767-1.153Z" transform="translate(-3340.705 -279.297)" fill="#fff"/><path d="M3409.581,255.539l9.115.823-17.67,14.684-10.3-.93Z" transform="translate(-3217.033 -255.539)" fill="#fff"/></g><path d="M3604.3,297.615l1.579,18.843,4.152-3.4.161-13.131-.833-5.021Z" transform="translate(-3335.517 -17.483)" fill="#ea3e47"/><path d="M3518.49,193.238c-11.177,1.138-22.19-17.159-24.593-40.862s4.705-43.839,15.887-44.972,22.19,17.159,24.594,40.862S3529.673,192.105,3518.49,193.238Zm11.129-43.88c-1.768-17.394-9.695-33.553-16.856-32.828S3498.771,135.6,3500.534,153s10.765,32.228,17.928,31.5S3531.382,166.751,3529.62,149.358Z" transform="translate(-3194.181 58.428)" fill="#fff"/><path d="M3591.281,35.576s7.848,4.569,10.475,15.729-3,17.58-3,17.58l-12.987,24.859-5.908,14.889L3577,123.861l.479,15.867,5.329,21.44,6.609,18.455,1.639,1.754-10.385,4.468-13.868,4.191-28.5,3.788,1.361-64.5.507-5.785-3.672.308-8.411-3.888-7.252-4.406-1.213-10.961-1.842-6.705,4.622-18.248,4.2-11.439,5.318-10.743Z" transform="translate(-3276.284 87.479)" fill="#ea3e47"/><path d="M3638.445,172.594l89.853-46.558,67.493,12.327-6.907,4.569-1.538,70.117L3738.174,245.3l-42.876-7.279-28.149-12.942-10.808-16.458-6.321-21.372-.776-12.112Z" transform="translate(-3541.447 50.866)" fill="#bae2f8"/><path d="M3510,204.932s.338,4.156-2.868,10.035" transform="translate(-3177.508 18.934)" fill="none" stroke="#fff" stroke-linecap="round" stroke-linejoin="round" stroke-width="1.92"/><path d="M3525.057,136.8s.737-6.731,3.769-8.422a3.832,3.832,0,0,1,4.886.441" transform="translate(-3211.873 50.183)" fill="none" stroke="#fff" stroke-linecap="round" stroke-linejoin="round" stroke-width="1.92"/><path d="M3820.7,392.733c-13.829,1.408-27.457-21.232-30.43-50.56s5.823-54.243,19.659-55.645,27.457,21.231,30.431,50.56S3834.53,391.331,3820.7,392.733Zm11.472-54.4c-2.187-21.522-11.137-38.237-20-37.341s-14.272,19.075-12.09,40.6,11.136,38.237,20,37.335S3834.349,359.851,3832.168,338.33Z" transform="translate(-3676.619 -14.066)" fill="#fff"/><path d="M3499.325-45.626s3.413-14.446,12.637-24.956,12.684-11.164,12.684-11.164l16.953-5.649,12.7.06,12.066,5.315,5.063,5.193,3.539,7.839,6.8,7.472,11.068,14.736,10,12.632,9.892,7.392,10.8,3.132,11.032,1.5L3551.849,8.829l-2.115-6.4L3531.88-26.511l-5.691-2.288-4.069-4.625-.064-7.32-1.039,1.682Z" transform="translate(-3297.41 137.25)" fill="#f8e7da"/><path d="M3669.962-91.714l1.811,4.563-.128,3.222-1.76,2.1-6.409,2.394-2.361.774-1.9-1.891-1.19-1.494,4.659-2.614Z" transform="translate(-3429.087 138.998)" fill="#774631"/><path d="M3683.05,89.124l-1.335,8.8,1.018,5.454,2,1.261,4.687,1.242,2.56-.575,2.806-8.86,1.382-10.583-7.948-1.807-4.96,2.257Z" transform="translate(-3467.581 67.857)" fill="#338333"/><path d="M3656.191-105.033l2.626,6.815,2.23,3.763,3.115,2.169,3.307.647,3.705-.314,5.993-3.32,4.088-2.944,1.585-3.2.425-1.958,2.415-2.124.273-3.032-3.077-.714-14.422-5.361-10.988,4.032Z" transform="translate(-3442.173 148.264)" fill="#774631"/><path d="M3564.156,294.352l-.213,12.26-9.509,13.89,30.06-10.8,1.95,5.956,6.086-1.953-1.223-24.839Z" transform="translate(-3288.175 -15.036)" fill="#1a1818"/><path d="M3683.077,90.973s8.615.1,11.551,4.776a37.146,37.146,0,0,0,.847-6.478l-5.975-.993-6.08-1.1Z" transform="translate(-3467.698 66.592)" fill="#1a1818"/><path d="M3637.439,54.691l19.865,8.467,7.336,2.185,16.4,1.481,11.611-1.475,7.674-.189,1.043,1.978-.263,2.905-2.337,2.991-5.538,3.605-25.509-.812-8.109-1.733-6.717-1.28-11.587-4.361-7.389-5.278-1.4-2.255-.495-4.031,1.937-1.679Z" transform="translate(-3443.196 79.743)" fill="#338333"/><path d="M3602.61,89.17l-8.041,4.045-10.219,5.858-1.725,2.791-.564,1.47.2,2.031.829,1.933,1.646.815,3.7.737,3.694-.4,1.729-.683,8.97-18.372Z" transform="translate(-3314.926 65.788)" fill="#1a1818"/><path d="M3512.044,170.635l1.391-9.258,3.077-4.31,1.162.227,2.529.446,3.407,4.038,1.623,5.724,1.194,7.262-2.148,7.274-2.779,3.111-1.876-.169-2.84-.986-1.323-2.171-1.9-2.784-2.032-2.645Z" transform="translate(-3196.531 38.307)" fill="#338333"/><path d="M3524.083,159.054l17.091,7.843,3.313,2.813.476,1.934-1.29,3.009-5.293,3.075L3521.655,188.9l-.849-7.878,17.157-10.293L3523,162.708Z" transform="translate(-3220.593 37.502)" fill="#338333"/><path d="M3622.608,190.935l16.792-9.463-.478,6.431-16.5,10.1Z" transform="translate(-3375.519 28.429)" fill="#338333"/><path d="M3623,233.675l16.792-9.463-.478,6.431-16.5,10.1Z" transform="translate(-3376.142 11.131)" fill="#338333"/><path d="M3818.273,270.21l.358,3.692a6.985,6.985,0,0,0-3.065,2.479,13.336,13.336,0,0,0-1.091,2.833l1.9-.225.932.376,1.386-1.6,1.062-.246,1.293.893.9,5.47,2.313,19.632,1.273,21.085-1.873,7.523-.016,2.348.524.7,1.262-.242,2.044-1.97,2.076-4.676.176-5.662-1.181-29.558-.458-11.382-2.174-5.1-2.521-2.429-.226-6.408-4.965,1.7Z" transform="translate(-3680.166 -6.487)" fill="#338333"/><path d="M3821.964,258.951s1.557,2.871,6.6,2.313,4.7-2.716,4.7-2.716l-.6-8.831-9.828-2.47-2.113,2.623Z" transform="translate(-3687.424 1.807)" fill="#338333"/><path d="M3431.224,212.058l16.212-11.96s.384-6.23,3.273-6.506,4.1,4.129,4.1,4.129-.632-4.889,1.385-5.423,2.205,3.332,2.205,3.332l6.155-4.725" transform="translate(-3086.861 24.611)" fill="none" stroke="#1a1818" stroke-linecap="round" stroke-linejoin="round" stroke-width="0.404"/><path d="M3717.2,424.4l13.309-11.511s2.22-7.553,6.485-9.688,6.571.206,5.961,2.671c2.61-.991,5.713-5.288,5.713-5.288l-.19,2.1,6.306-5.44" transform="translate(-3547.322 -58.906)" fill="none" stroke="#1a1818" stroke-linecap="round" stroke-linejoin="round" stroke-width="0.404"/><line y1="4.252" x2="5.23" transform="translate(212.109 329.871)" fill="none" stroke="#1a1818" stroke-linecap="round" stroke-linejoin="round" stroke-width="0.404"/><g transform="translate(200.138 253.99)"><path d="M3694.73,469.027l11.3,1.021-21.762,17.206L3671.5,486.1Z" transform="translate(-3671.5 -341.946)" fill="none" stroke="#1a1818" stroke-linecap="round" stroke-linejoin="round" stroke-width="0.404"/><path d="M3587.425,394.94l11.3,1.021-21.762,17.206-12.768-1.153Z" transform="translate(-3500.321 -311.96)" fill="none" stroke="#1a1818" stroke-linecap="round" stroke-linejoin="round" stroke-width="0.404"/><path d="M3487.369,314.239l11.3,1.021-21.762,17.206-12.767-1.153Z" transform="translate(-3340.705 -279.297)" fill="none" stroke="#1a1818" stroke-linecap="round" stroke-linejoin="round" stroke-width="0.404"/><path d="M3409.581,255.539l9.115.823-17.67,14.684-10.3-.93Z" transform="translate(-3217.033 -255.539)" fill="none" stroke="#1a1818" stroke-linecap="round" stroke-linejoin="round" stroke-width="0.404"/></g><path d="M3692.326-127.153c-7.152,11.03-28.33,12.98-28.33,12.98" transform="translate(-3453.19 153.342)" fill="none" stroke="#1a1818" stroke-linecap="round" stroke-linejoin="round" stroke-width="0.505"/><path d="M3657.22-111.556s-3.116-16.164,10.178-20.061,18.817,4.208,18.817,4.208l3.027,3.811Z" transform="translate(-3445.885 155.578)" fill="#ea4047"/><path d="M3508.774-138.75s1.442-16.5,15.626-18.263,24.21,3.155,24.21,3.155l7.013.72,8.333-2.045,10.9-9.247s7.626-5.433,13.383-5.65a31.385,31.385,0,0,1,8.707.608l-8.2,2.527-3.362,3.758-2.308,3.475-2.78,10.116-3.889,6.8-3.25,2.757-4.908,1.31-9.163-1.466-6.052-.629-3.251.726-4.032,2.777-5.139,4.357-4.763,2.791-4.53,1.5-5.312.576-8.25-.229-5.043-1.195.576-4.371L3513-137.1l-1.139-1.431Z" transform="translate(-3265.417 170.73)" fill="#1a1818"/><path d="M3651.919-117.424l3.058.752.949,3.8-.066,4.685-1.351.894-2.133.677-.256-2.6-1.949-1.028,2.415-2.958Z" transform="translate(-3408.563 149.404)" fill="#bae2f8"/><path d="M3669.6-113.785l-.988-3.639-13.367,5.027,7.223,15.357,2.487-1.924-1.7-8.054Z" transform="translate(-3425.253 149.404)" fill="#e5424f"/><path d="M3639.882-7.793l-2.527,11.481L3633.3,17.147l-5.216,10.5-3.757,5.109L3619.8,36.1l-2.753,3.457-1.471,3.943.328,4.694,3.45,4.769,4.987,2.383,7.855,1.322,5.679-1.552,1.848-2.088,2.1-1.7-4.306-2.813-1.865-2.622.156-1.722,1.285-2.037,2.674-2.3,2.382.233s8.011-10.256,11.464-19.8,6.881-23.4,6.881-23.4l.157-1.749Z" transform="translate(-3392.696 105.032)" fill="#774631"/><path d="M3705.744-15.1l16.963,5.13-3.4,13.246-2.529,11.461-1.811,11.451,1.92,3.887-.419,4.969-4.375.36-3.2,3.751-.521,2.936,2.936,1.993-.157,1.749L3709,47.379l-2.45-.221-3.3-.3-3.648-2.068-4.119-2.528-1.529-2.241-.782-7.087.873-5.761,2.761-3.833L3698.2,16.8l1.844-10.225,3.754-15.067Z" transform="translate(-3500.943 107.989)" fill="#774631"/><path d="M3691.661,126.225l.87-9.629,6.686,2.548-.269,9.6-7.633-1.811Z" transform="translate(-3476.343 54.687)" fill="#338333"/><path d="M3567.213,335.127l3.106,6.3,22.856-7.755-2.485-8.479-22.957,7.747Z" transform="translate(-3296.43 -29.741)" fill="#ea3e47"/><path d="M3525.935,56.24l62.182-14.355-5.9-6.568Z" transform="translate(-3266.8 87.584)" fill="#1a1818"/><path d="M3541.14,211.771l7.329,41.3-10.264,6.793,15.575-6.563-7.493-20.816Z" transform="translate(-3239.767 16.166)" fill="#1a1818"/><path d="M3615.427-4.775s13.472.957,19.868,7.041c.994-3.786,1.655-8.159,1.655-8.159l-20.858-1.9Z" transform="translate(-3368.905 105.032)" fill="#1a1818"/><path d="M3814.8,280.5c.458-.951,1.458-2.317,3.224-1.7.4.141.8,1.328,1.186,3.244.329,1.624.651,3.776.962,6.249,1.69,13.556,2.974,36.821,2.974,36.821l-1.676,8.731s-.355,1.929.928,2.163,4.753-5.874,4.624-10.911c-.1-4.025-.547-25.973-1.356-37.337-.014-.174-.026-.345-.039-.515a44.41,44.41,0,0,0-.645-5.6c-1.243-5.292-4.1-6.366-4.1-6.366l-.039-4.745" transform="translate(-3677.662 -7.617)" fill="none" stroke="#1a1818" stroke-linecap="round" stroke-linejoin="round" stroke-width="0.404"/><path d="M3836.775,270.7l.469,4.832a5.467,5.467,0,0,0-4.1,4.276,5.6,5.6,0,0,0-.1.6" transform="translate(-3698.737 -7.686)" fill="none" stroke="#1a1818" stroke-linecap="round" stroke-linejoin="round" stroke-width="0.404"/><path d="M3817.36,288.7a14.667,14.667,0,0,0-4.411-1.548,12.215,12.215,0,0,0-3.226-.121c-13.732,1.332-22.563,26.125-19.725,55.379s16.269,51.887,30,50.555,22.561-26.125,19.724-55.379c-1.831-18.866-8.069-34.979-15.947-43.686" transform="translate(-3675.809 -14.272)" fill="none" stroke="#1a1818" stroke-linecap="round" stroke-linejoin="round" stroke-width="0.404"/><path d="M3559.093,181.2v.012c.033.426.074.846.114,1.273q.334,3.427.9,6.688" transform="translate(-3258.526 28.541)" fill="none" stroke="#1a1818" stroke-linecap="round" stroke-linejoin="round" stroke-width="0.404"/><path d="M3517.3,117.521c6.364,7.031,11.4,20.047,12.877,35.29,2.292,23.627-4.838,43.661-15.932,44.737-8.834.857-17.513-10.568-21.84-27.186" transform="translate(-3189.327 54.313)" fill="none" stroke="#1a1818" stroke-linecap="round" stroke-linejoin="round" stroke-width="0.404"/><path d="M3523.472,108.137a9.9,9.9,0,0,1,1.926.132,11.741,11.741,0,0,1,3.559,1.252" transform="translate(-3206.175 58.113)" fill="none" stroke="#1a1818" stroke-linecap="round" stroke-linejoin="round" stroke-width="0.404"/><path d="M3822.724,356.409s-.661,21.826,5.464,36.048,11.272,18.353,16.369,16.006" transform="translate(-3699.896 -42.375)" fill="none" stroke="#1a1818" stroke-linecap="round" stroke-linejoin="round" stroke-width="0.404"/><path d="M3844.926,327.773a34.1,34.1,0,0,1,2.95-8.968,40.139,40.139,0,0,1,3.719-5.8" transform="translate(-3720.161 -24.807)" fill="none" stroke="#1a1818" stroke-linecap="round" stroke-linejoin="round" stroke-width="0.404"/><line x2="16.369" y2="31.517" transform="translate(123.508 290.008)" fill="none" stroke="#1a1818" stroke-linecap="round" stroke-linejoin="round" stroke-width="0.404"/><line x2="11.469" y2="8.411" transform="translate(113.733 313.38)" fill="none" stroke="#1a1818" stroke-linecap="round" stroke-linejoin="round" stroke-width="0.404"/><path d="M3868.729,366.563s-2.509-13.94.914-24" transform="translate(-3751.849 -36.772)" fill="none" stroke="#1a1818" stroke-linecap="round" stroke-linejoin="round" stroke-width="0.404"/><path d="M3876.408,349.013a82.073,82.073,0,0,1,5.467-34.329" transform="translate(-3769.096 -25.487)" fill="none" stroke="#1a1818" stroke-linecap="round" stroke-linejoin="round" stroke-width="0.404"/><path d="M3867.281,303.321a15.039,15.039,0,0,1,2.431-4.287" transform="translate(-3751.585 -19.153)" fill="none" stroke="#1a1818" stroke-linecap="round" stroke-linejoin="round" stroke-width="0.404"/><line x2="0.857" y2="8.83" transform="translate(146.413 336.402)" fill="none" stroke="#1a1818" stroke-linecap="round" stroke-linejoin="round" stroke-width="0.404"/><line y1="3.397" x2="1.611" transform="translate(148.704 356.627)" fill="none" stroke="#1a1818" stroke-linecap="round" stroke-linejoin="round" stroke-width="0.404"/><path d="M3804.131,395.966s5.128-9.179,2.274-36.22" transform="translate(-3651.552 -43.725)" fill="none" stroke="#1a1818" stroke-linecap="round" stroke-linejoin="round" stroke-width="0.404"/><line x2="5.323" y2="1.293" transform="translate(150.394 329.711)" fill="none" stroke="#1a1818" stroke-linecap="round" stroke-linejoin="round" stroke-width="0.404"/><path d="M3851.743,352.352a84.692,84.692,0,0,0,.609,21.7" transform="translate(-3724.726 -40.733)" fill="none" stroke="#fff" stroke-linecap="round" stroke-linejoin="round" stroke-width="1.92"/><line x2="0.779" y2="4.068" transform="translate(128.288 337.133)" fill="none" stroke="#fff" stroke-linecap="round" stroke-linejoin="round" stroke-width="1.92"/><path d="M3809.938,411.6a45.143,45.143,0,0,0,4.343-18.962" transform="translate(-3662.02 -57.04)" fill="none" stroke="#fff" stroke-linecap="round" stroke-linejoin="round" stroke-width="1.92"/><path d="M3836.973,321.281s1.971-6.6,5.686-6.963" transform="translate(-3706.49 -25.339)" fill="none" stroke="#fff" stroke-linecap="round" stroke-linejoin="round" stroke-width="1.92"/><path d="M3657.434-111.984c.067-.963-4.306-14.577,10.928-20.359s21.094,8.318,21.094,8.318Z" transform="translate(-3446.099 156.006)" fill="none" stroke="#1a1818" stroke-linecap="round" stroke-linejoin="round" stroke-width="0.505"/><path d="M3692.839-98.694a58.879,58.879,0,0,1-2.7,8.461c4.756,1.386,5.879.41,5.879.41l.3-4.3" transform="translate(-3472.744 141.823)" fill="none" stroke="#1a1818" stroke-linecap="round" stroke-linejoin="round" stroke-width="0.505"/><path d="M3679-100.623s.367-1.941,1.833-1.838,1.819,2.093,1.819,2.093" transform="translate(-3452.445 143.35)" fill="none" stroke="#1a1818" stroke-linecap="round" stroke-linejoin="round" stroke-width="0.505"/><path d="M3668.9-94.994c-.128-.5-6.573-15.6-6.573-15.6l4.711-1.771,4.777,15.118Z" transform="translate(-3431.691 147.357)" fill="none" stroke="#1a1818" stroke-linecap="round" stroke-linejoin="round" stroke-width="0.505"/><path d="M3663.3-117.424l.958,3.637-6.044,7.927-2.921-8.553Z" transform="translate(-3419.945 149.404)" fill="none" stroke="#1a1818" stroke-linecap="round" stroke-linejoin="round" stroke-width="0.505"/><path d="M3667.729-98.523s4.525,22.65,22.894,8.366" transform="translate(-3453.711 141.754)" fill="none" stroke="#1a1818" stroke-linecap="round" stroke-linejoin="round" stroke-width="0.505"/><path d="M3649.162-118.235l2.768.66s1.843.481,2.047,4.643-1.376,5.554-1.376,5.554l-2.757.436" transform="translate(-3406.031 149.732)" fill="none" stroke="#1a1818" stroke-linecap="round" stroke-linejoin="round" stroke-width="0.505"/><path d="M3507.065-139.168s-.183-16.06,17.022-18.5,26.074,10.265,39.293.267,19.975-17.1,32.877-12.119c-8.109,1.472-13.094,4.036-14.863,10.61s-4.742,17.869-12.719,19.5-15.726-4.155-21.8-.5-11.752,15.863-35.868,9.987" transform="translate(-3263.708 171.149)" fill="none" stroke="#1a1818" stroke-linecap="round" stroke-linejoin="round" stroke-width="0.505"/><path d="M3632.767-105.864s-4.841,2.975-17.383,3.091" transform="translate(-3364.696 144.725)" fill="none" stroke="#1a1818" stroke-linecap="round" stroke-linejoin="round" stroke-width="0.505"/><path d="M3580.718-144.721s5.481-9.586,16.208-13.059,20.659,1.879,26.44-3.542" transform="translate(-3334.659 167.171)" fill="none" stroke="#1a1818" stroke-linecap="round" stroke-linejoin="round" stroke-width="0.505"/><path d="M3657.36-104.509s2.567-.854,2.72,1.757a3.027,3.027,0,0,1-2.368,3.147l-1.742,4.438" transform="translate(-3416.174 144.231)" fill="none" stroke="#1a1818" stroke-linecap="round" stroke-linejoin="round" stroke-width="0.505"/><path d="M3709.666-76.533a37.788,37.788,0,0,0-8.638,7.168,68.957,68.957,0,0,0-14.6,28.177l21.062,6.522,1.039-1.682" transform="translate(-3483.886 132.854)" fill="none" stroke="#1a1818" stroke-linecap="round" stroke-linejoin="round" stroke-width="0.505"/><path d="M3597.648-87.62c10.306-1.968,21.2-.386,29.061,6.949,15.4,14.369,2.6,43.946,2.6,43.946l-28.949-4.04L3604-63.355" transform="translate(-3355.671 137.656)" fill="none" stroke="#1a1818" stroke-linecap="round" stroke-linejoin="round" stroke-width="0.505"/><path d="M3661.912-20.578s-1.727,12.1,1.029,15.553,7.935,5.156,7.935,5.156l6.463,10.82" transform="translate(-3436.646 110.207)" fill="none" stroke="#1a1818" stroke-linecap="round" stroke-linejoin="round" stroke-width="0.505"/><line x1="2.339" y1="3.919" transform="translate(252.25 140.506)" fill="none" stroke="#1a1818" stroke-linecap="round" stroke-linejoin="round" stroke-width="0.505"/><path d="M3547.056,8.511s7.307,2.883,15.333,5.232h.005c2.072.6,4.187,1.176,6.241,1.651,0,.007.017.008.023.008,4.182.97,8.085,1.545,10.764,1.238-.907.492-9.844,3.815-21.542,8.091-21.5,7.865-52.32,18.948-59.553,21.55h-.006" transform="translate(-3241.668 98.433)" fill="none" stroke="#1a1818" stroke-linecap="round" stroke-linejoin="round" stroke-width="0.505"/><path d="M3515.185-58.905s13.58,16.485,21.482,27.422,19.06,18.561,29.1,19.7" transform="translate(-3238.047 125.719)" fill="none" stroke="#1a1818" stroke-linecap="round" stroke-linejoin="round" stroke-width="0.505"/><path d="M3545.945,64.214c-.012.132-.589,1.372-1.568,3.4-1.9,3.965-5.335,10.92-9.009,18.433-6.3,12.9-13.325,27.44-14.641,31.313a27.677,27.677,0,0,0-.8,5.14c-.07.707-.139,1.473-.2,2.283-.1,1.266-.192,2.658-.278,4.148-.32,5.557-.575,12.515-.761,19.8-.055,2.073-.106,4.176-.151,6.279-.422,19.4-.475,38.891-.475,38.891l6.533-1.185v-.006l5.4-.98,2.3-.42,26.881-4.886,10.882-4.363s-9.852-22.624-13.012-43.46c-.39-2.572-.665-5.078-.786-7.475a45.533,45.533,0,0,1,.086-6.37c.073-.808.158-1.616.266-2.41v-.012a75.54,75.54,0,0,1,1.7-8.948q.6-2.383,1.317-4.676c3.771-12.136,9.739-22.449,13.718-29.862.69-1.291,1.324-2.5,1.872-3.606,4.291-8.659,14.371-21.294-2.957-39.479" transform="translate(-3256.048 87.404)" fill="none" stroke="#1a1818" stroke-linecap="round" stroke-linejoin="round" stroke-width="0.505"/><path d="M3743.52,64.081a25.629,25.629,0,0,1-2.358-2.188c-4.568-4.845.883-7.892,4.086-7.258" transform="translate(-3551.005 79.799)" fill="none" stroke="#1a1818" stroke-linecap="round" stroke-linejoin="round" stroke-width="0.505"/><path d="M3689.543,69.126c.012,0,.018.008.03.009,1.93.621,4.908,1.5,8.4,2.274" transform="translate(-3474.046 73.9)" fill="none" stroke="#1a1818" stroke-linecap="round" stroke-linejoin="round" stroke-width="0.505"/><path d="M3702.762,88.311c-1.561-.165-3.044-.335-4.423-.5-1.135-.139-2.5-.376-4.007-.712-1.74-.38-3.687-.895-5.73-1.538-.024-.008-.041-.016-.058-.023" transform="translate(-3478.24 67.259)" fill="none" stroke="#1a1818" stroke-linecap="round" stroke-linejoin="round" stroke-width="0.505"/><path d="M3631.07,73.184c.258-.061.518-.135.772-.208.36-.107.713-.2,1.048-.3a27.3,27.3,0,0,1,7.278-1.2,7.157,7.157,0,0,1,2.063.289h.006c2.218.72,2.035,2.539,2.074,3.442.049,1.327-2.138,5.351-8.261,7.147-.353.107-.725.206-1.107.292" transform="translate(-3385.579 72.95)" fill="none" stroke="#1a1818" stroke-linecap="round" stroke-linejoin="round" stroke-width="0.505"/><path d="M3660.963-3.959c-4.023,21.474-10.993,33.454-15.709,39.466a27.007,27.007,0,0,1-4.938,5.122s-.4-.61-1.821.506a13.826,13.826,0,0,0-1.916,1.952c-2.795,5.678,5.79,7.51,5.79,7.51s-.748,5.265-10.6,6.181a15.484,15.484,0,0,1-11.065-2.926,14.59,14.59,0,0,1-3.177-3.282,12.332,12.332,0,0,1-1.33-2.391,7.35,7.35,0,0,1-.416-1.276,8.993,8.993,0,0,1,1.151-6.594c1.322-2.393,3.756-5.15,7.9-8.369,3.279-2.548,6.341-8.9,8.866-15.783a205.868,205.868,0,0,0,6.847-23.87" transform="translate(-3393.004 104.999)" fill="none" stroke="#1a1818" stroke-linecap="round" stroke-linejoin="round" stroke-width="0.505"/><path d="M3704.386-15.909s-7.129,22.226-8.312,37.924a14.41,14.41,0,0,0-2.4,4.1,22.442,22.442,0,0,0-1.729,9.446c.184,2.776,1.136,5.206,3.266,6.491a31.141,31.141,0,0,1,3.666,2.475,9.541,9.541,0,0,0,7.193,2.2,4.382,4.382,0,0,0,3.722-2.224c-.024-.008-.04-.015-.059-.023-4.288-1.523-3.391-3.9-2.232-6.247s3.75-4.608,7.426-3.521c.013,0,.018.008.03.009a16.7,16.7,0,0,0-1.5-8.856s3.046-24.1,8.49-36.09" transform="translate(-3499.433 108.317)" fill="none" stroke="#1a1818" stroke-linecap="round" stroke-linejoin="round" stroke-width="0.505"/><path d="M3602.221,89.267s-21.284,8.32-20.86,15.122,11.852,3.311,11.852,3.311" transform="translate(-3313.894 65.748)" fill="none" stroke="#1a1818" stroke-linecap="round" stroke-linejoin="round" stroke-width="0.505"/><path d="M3696.757,92.655c-.827,5.276-2.111,12.8-2.807,13.824a2.365,2.365,0,0,1-1.4.895c-1.72.467-4.554-.055-7.642-1.711a.09.09,0,0,1-.029-.021c-3.329-1.853-.854-13.074.268-17.483" transform="translate(-3469.058 66.197)" fill="none" stroke="#1a1818" stroke-linecap="round" stroke-linejoin="round" stroke-width="0.505"/><path d="M3698.956,119.261l-.89,9.86-7.8-1.423c.3-3.325.753-7.662,1.016-10.169a.085.085,0,0,0,.029.021C3694.4,119.205,3697.236,119.727,3698.956,119.261Z" transform="translate(-3475.462 54.309)" fill="none" stroke="#1a1818" stroke-linecap="round" stroke-linejoin="round" stroke-width="0.505"/><path d="M3764.075,132.564l18.637,3.4,13.778,2.519-7.238,4.244-69.463,40.723-4.068,2.38-74.1-11.933-4.311-.707,91.011-47.158,27.958,5.1" transform="translate(-3541.472 50.866)" fill="none" stroke="#1a1818" stroke-linecap="round" stroke-linejoin="round" stroke-width="0.505"/><path d="M3735.24,277.443c30.755,6.642,42.224,6.893,42.224,6.893s-23.167-28.133-18.408-61.842" transform="translate(-3580.738 11.826)" fill="none" stroke="#1a1818" stroke-linecap="round" stroke-linejoin="round" stroke-width="0.505"/><path d="M3871.885,258.536c-16.178-16.33-18.858-37.334-18.757-50.02" transform="translate(-3745.332 17.483)" fill="none" stroke="#1a1818" stroke-linecap="round" stroke-linejoin="round" stroke-width="0.505"/><path d="M3649.471,256.647l49.172-32.247.324-12.085.174-6.543.521-19.405.171-6.519.4-14.748.295-11.019" transform="translate(-3452.745 39.515)" fill="none" stroke="#1a1818" stroke-linecap="round" stroke-linejoin="round" stroke-width="0.505"/><path d="M3626.944,172.593a45.223,45.223,0,0,0,13.705,6.8" transform="translate(-3379.458 32.023)" fill="none" stroke="#1a1818" stroke-linecap="round" stroke-linejoin="round" stroke-width="0.505"/><path d="M3644.949,121.283a147.57,147.57,0,0,1,9.231-31.53" transform="translate(-3403.708 65.551)" fill="none" stroke="#1a1818" stroke-linecap="round" stroke-linejoin="round" stroke-width="0.505"/><path d="M3564.426,293.749l-.22,12.479-9.772,14.274,30.06-10.8,2.165,5.521,5.871-1.518-1.223-24.839" transform="translate(-3288.175 -15.036)" fill="none" stroke="#1a1818" stroke-linecap="round" stroke-linejoin="round" stroke-width="0.505"/><path d="M3566.411,334.081l24.493-8.513,2.538,8.8-23.333,7.206Z" transform="translate(-3296.218 -29.892)" fill="none" stroke="#1a1818" stroke-linecap="round" stroke-linejoin="round" stroke-width="0.505"/><path d="M3611.471,299.421v.006l1.851,19.293" transform="translate(-3342.921 -19.309)" fill="none" stroke="#1a1818" stroke-linecap="round" stroke-linejoin="round" stroke-width="0.505"/><line x2="0.792" y2="13.948" transform="translate(273.945 279.133)" fill="none" stroke="#1a1818" stroke-linecap="round" stroke-linejoin="round" stroke-width="0.505"/><line x1="16.269" y2="9.419" transform="translate(246.223 242.411)" fill="none" stroke="#1a1818" stroke-linecap="round" stroke-linejoin="round" stroke-width="0.505"/><line x1="16.245" y2="9.156" transform="translate(246.398 236.132)" fill="none" stroke="#1a1818" stroke-linecap="round" stroke-linejoin="round" stroke-width="0.505"/><path d="M3622.422,190.935l14.1-7.948,2.691-1.514" transform="translate(-3375.332 28.429)" fill="none" stroke="#1a1818" stroke-linecap="round" stroke-linejoin="round" stroke-width="0.505"/><line x1="16.486" y2="9.551" transform="translate(246.918 216.332)" fill="none" stroke="#1a1818" stroke-linecap="round" stroke-linejoin="round" stroke-width="0.505"/><path d="M3821.964,258.951s1.557,2.871,6.6,2.313,4.7-2.716,4.7-2.716l-.6-8.831-9.828-2.47-2.113,2.623Z" transform="translate(-3687.424 1.807)" fill="none" stroke="#1a1818" stroke-linecap="round" stroke-linejoin="round" stroke-width="0.505"/><path d="M3541.238,175.323l-17.989,11.547-1.479,1.382c-.39-2.572-.853-4.951-.974-7.347l.957-1,15.79-9.474-15.108-7.446q.6-2.383,1.317-4.676L3539.7,165.9s4.44,1.863,4.823,4.832S3541.238,175.323,3541.238,175.323Z" transform="translate(-3220.172 37.805)" fill="none" stroke="#1a1818" stroke-linecap="round" stroke-linejoin="round" stroke-width="0.505"/><path d="M3535.958,179.19c-.036-.746-.047-1.484-.025-2.195" transform="translate(-3220.586 30.241)" fill="none" stroke="#1a1818" stroke-linecap="round" stroke-linejoin="round" stroke-width="0.505"/><path d="M3511.758,163.872c1-3.75,2.969-6.314,5.4-6.5,3.935-.3,7.612,5.724,8.2,13.465s-2.115,14.267-6.049,14.57c-2.853.219-5.573-2.895-7.071-7.572" transform="translate(-3195.69 38.188)" fill="none" stroke="#1a1818" stroke-linecap="round" stroke-linejoin="round" stroke-width="0.505"/><path d="M3523.98,194.315c-.452,14.362-5.1,25.248-11.771,25.889-3.991.383-7.963-2.972-11.194-8.723" transform="translate(-3187.829 23.231)" fill="none" stroke="#1a1818" stroke-linecap="round" stroke-linejoin="round" stroke-width="0.505"/><path d="M3550.091,146.741c-.3,1.308-.551,2.686-.758,4.117" transform="translate(-3242.702 42.486)" fill="none" stroke="#1a1818" stroke-linecap="round" stroke-linejoin="round" stroke-width="0.505"/><path d="M3514.625,154.378c-1.679-14.114-6.807-25.605-12.719-29.611" transform="translate(-3179.003 51.38)" fill="none" stroke="#1a1818" stroke-linecap="round" stroke-linejoin="round" stroke-width="0.505"/><path d="M3544.819,212.4c-.393-1-.777-2.033-1.133-3.1" transform="translate(-3234.068 17.166)" fill="none" stroke="#1a1818" stroke-linecap="round" stroke-linejoin="round" stroke-width="0.505"/><path d="M3524.094,218.172c.388.723-.114,13.877-.114,13.877" transform="translate(-3201.761 13.575)" fill="none" stroke="#1a1818" stroke-linecap="round" stroke-linejoin="round" stroke-width="0.505"/><line x2="0.26" y2="5.798" transform="translate(324.824 240.085)" fill="none" stroke="#1a1818" stroke-linecap="round" stroke-linejoin="round" stroke-width="0.505"/><line y1="12.406" x2="3.26" transform="translate(327.573 182.226)" fill="none" stroke="#1a1818" stroke-linecap="round" stroke-linejoin="round" stroke-width="0.505"/><line x1="4.043" y2="5.272" transform="translate(311.754 222.358)" fill="none" stroke="#1a1818" stroke-linecap="round" stroke-linejoin="round" stroke-width="0.505"/><line y1="3.918" x2="2.28" transform="translate(328.506 192.226)" fill="none" stroke="#1a1818" stroke-linecap="round" stroke-linejoin="round" stroke-width="0.505"/><path d="M3602.225,178.048s2.347,3.379,8.983,2.1" transform="translate(-3335.304 29.815)" fill="none" stroke="#1a1818" stroke-linecap="round" stroke-linejoin="round" stroke-width="0.505"/><path d="M3609.018,186.442s2.254,1.972,4.287,1.492" transform="translate(-3341.444 26.418)" fill="none" stroke="#1a1818" stroke-linecap="round" stroke-linejoin="round" stroke-width="0.505"/><path d="M3527.654,40.173s11.26,7.5,11.279,15.8" transform="translate(-3218.639 85.618)" fill="none" stroke="#1a1818" stroke-linecap="round" stroke-linejoin="round" stroke-width="0.505"/><line x1="1.168" y2="4.429" transform="translate(318.748 145.761)" fill="none" stroke="#1a1818" stroke-linecap="round" stroke-linejoin="round" stroke-width="0.505"/><path d="M3562.9,174.033l4.46,14.19-6.091-4.4" transform="translate(-3267.081 31.44)" fill="none" stroke="#1a1818" stroke-linecap="round" stroke-linejoin="round" stroke-width="0.505"/><path d="M3692.326-127.153c-7.152,11.03-28.33,12.98-28.33,12.98" transform="translate(-3453.19 153.342)" fill="none" stroke="#1a1818" stroke-linecap="round" stroke-linejoin="round" stroke-width="0.505"/><path d="M3658.263-83.243l3.468,4.356s10.2-2.816,10.761-6.344-2.115-7.266-2.115-7.266" transform="translate(-3430.021 139.316)" fill="none" stroke="#1a1818" stroke-linecap="round" stroke-linejoin="round" stroke-width="0.505"/><line x2="2.926" y2="4.499" transform="translate(228.737 155.761)" fill="none" stroke="#1a1818" stroke-linecap="round" stroke-linejoin="round" stroke-width="0.253"/><line x1="7.629" y1="4.897" transform="translate(267.447 90.731)" fill="none" stroke="#1a1818" stroke-linecap="round" stroke-linejoin="round" stroke-width="0.505"/><line x1="2.008" y1="2.975" transform="translate(273.257 90.566)" fill="none" stroke="#1a1818" stroke-linecap="round" stroke-linejoin="round" stroke-width="0.505"/><line x1="1.572" y2="6.572" transform="translate(206.653 86.486)" fill="none" stroke="#1a1818" stroke-linecap="round" stroke-linejoin="round" stroke-width="0.253"/><line y1="29.644" x2="42.802" transform="translate(317.08 143.264)" fill="none" stroke="#fff" stroke-linecap="round" stroke-linejoin="round" stroke-width="1.92"/><line y1="9.847" x2="14.218" transform="translate(337.635 197.428)" fill="none" stroke="#fff" stroke-linecap="round" stroke-linejoin="round" stroke-width="1.92"/><path d="M3478.585,139.209s.48-9.746-5.04-16.633c10.859-7.8,14.333-9.721,14.333-9.721" transform="translate(-3135.376 56.201)" fill="none" stroke="#1a1818" stroke-linecap="round" stroke-linejoin="round" stroke-width="0.505"/><path d="M3490.829,95.4a124.465,124.465,0,0,1,18.526-11.315" transform="translate(-3167.14 67.846)" fill="none" stroke="#1a1818" stroke-linecap="round" stroke-linejoin="round" stroke-width="0.505"/><line x1="6.405" y2="4.196" transform="translate(340.51 178.315)" fill="none" stroke="#1a1818" stroke-linecap="round" stroke-linejoin="round" stroke-width="0.505"/></g><path d="M3515.918-57.119a107.431,107.431,0,0,1,15.035-11.156" transform="translate(-3203.673 188.893)" fill="none" stroke="#1a1818" stroke-linecap="round" stroke-linejoin="round" stroke-width="0.436"/><path d="M3534.27-57.88c8.723-7.541,7.893-6.331,7.893-6.331" transform="translate(-3225.829 187.277)" fill="none" stroke="#1a1818" stroke-linecap="round" stroke-linejoin="round" stroke-width="0.436"/><g transform="translate(101.974 99.302)"><path d="M3857.573-84.214h-54.187s2.7-4.047,11.733-4.575c0-3.225,2.342-7.917,8.676-5.981,2.463-4.4,6.334-11.26,16.714-8.8s9.333,14.778,9.333,14.778S3855.638-91.251,3857.573-84.214Z" transform="translate(-3803.386 104.085)" fill="#fff"/><path d="M3857.573-84.214h-54.187s2.7-4.047,11.733-4.575c0-3.225,2.342-7.917,8.676-5.981,2.463-4.4,6.334-11.26,16.714-8.8s9.333,14.778,9.333,14.778S3855.638-91.251,3857.573-84.214Z" transform="translate(-3803.386 104.085)" fill="none" stroke="#1a1818" stroke-linecap="round" stroke-linejoin="round" stroke-width="0.349"/></g><g transform="translate(404.997 93.45)"><path d="M3329.033-100.283h33.528s-.508-3.567-5.69-2.675c0-1.962.61-3.389-1.625-4.281s-4.819,1.338-4.819,1.338,1.452-10.433-9.716-7.49-7.309,11.146-7.309,11.146S3329.507-102.826,3329.033-100.283Z" transform="translate(-3329.033 113.915)" fill="#fff"/><path d="M3329.033-100.283h33.528s-.508-3.567-5.69-2.675c0-1.962.61-3.389-1.625-4.281s-4.819,1.338-4.819,1.338,1.452-10.433-9.716-7.49-7.309,11.146-7.309,11.146S3329.507-102.826,3329.033-100.283Z" transform="translate(-3329.033 113.915)" fill="none" stroke="#1a1818" stroke-linecap="round" stroke-linejoin="round" stroke-width="0.349"/></g><g transform="translate(197.053)"><path d="M3695.518-244.764h-57.612a9.7,9.7,0,0,1,8.952-4.909c-.722-3.61-.145-7.364,4.909-9.53s8.664,2.166,8.664,2.166-2.166-17.616,15.594-13.14,8.952,19.637,8.952,19.637S3694.507-253.139,3695.518-244.764Z" transform="translate(-3637.906 270.906)" fill="#fff"/><path d="M3695.518-244.764h-57.612a9.7,9.7,0,0,1,8.952-4.909c-.722-3.61-.145-7.364,4.909-9.53s8.664,2.166,8.664,2.166-2.166-17.616,15.594-13.14,8.952,19.637,8.952,19.637S3694.507-253.139,3695.518-244.764Z" transform="translate(-3637.906 270.906)" fill="none" stroke="#1a1818" stroke-linecap="round" stroke-linejoin="round" stroke-width="0.349"/></g></g></g></svg>