<svg width="1365" height="412" viewBox="0 0 1365 412" fill="none" xmlns="http://www.w3.org/2000/svg">
<g clip-path="url(#clip0)">
<path d="M-1 776.233L-1.00003 412.473C55.921 395.653 44.6909 357.653 101.611 340.833C158.531 324.013 169.76 362.013 226.681 345.193C283.602 328.373 272.371 290.363 329.29 273.543C386.209 256.723 397.431 294.723 454.351 277.903C511.271 261.083 500.04 223.083 556.951 206.263C613.862 189.443 625.102 227.443 682.011 210.613C738.92 193.783 727.701 155.793 784.622 138.973C841.543 122.153 852.761 160.153 909.682 143.333C966.603 126.513 955.362 88.5128 1012.28 71.6928C1069.2 54.8728 1080.42 92.8729 1137.34 76.0529C1188.4 60.9529 1184.62 28.8229 1224.38 10.2329C1229.41 7.89812 1234.62 5.94934 1239.94 4.40303C1275.3 -6.04698 1293.02 4.66286 1315.02 10.2329C1327.28 13.3429 1340.87 14.8629 1359.58 10.2328C1361.34 9.80285 1363.14 9.31288 1365 8.76288L1365 776.233L-1 776.233Z" fill="#F8EBE0"/>
</g>
<defs>
<clipPath id="clip0">
<rect width="1365" height="412" fill="white" transform="translate(1365 412) rotate(180)"/>
</clipPath>
</defs>
</svg>
