<svg xmlns="http://www.w3.org/2000/svg" width="14.315" height="11.627" viewBox="0 0 14.315 11.627"><path d="M12.844,6.278c.009.127.009.254.009.382a8.29,8.29,0,0,1-8.348,8.348A8.291,8.291,0,0,1,0,13.69a6.069,6.069,0,0,0,.708.036,5.876,5.876,0,0,0,3.642-1.253,2.939,2.939,0,0,1-2.743-2.035,3.7,3.7,0,0,0,.554.045,3.1,3.1,0,0,0,.772-.1A2.934,2.934,0,0,1,.581,7.5V7.468a2.955,2.955,0,0,0,1.326.372A2.938,2.938,0,0,1,1,3.917a8.339,8.339,0,0,0,6.049,3.07,3.312,3.312,0,0,1-.073-.672,2.937,2.937,0,0,1,5.078-2.007A5.776,5.776,0,0,0,13.916,3.6a2.926,2.926,0,0,1-1.29,1.617,5.882,5.882,0,0,0,1.689-.454,6.307,6.307,0,0,1-1.471,1.517Z" transform="translate(0 -3.381)" fill="#f0595a"/></svg>